<?xml version="1.0" encoding="UTF-8" standalone="no"?>
<!DOCTYPE svg PUBLIC "-//W3C//DTD SVG 1.1//EN" "http://www.w3.org/Graphics/SVG/1.1/DTD/svg11.dtd">
<svg xmlns="http://www.w3.org/2000/svg" version="1.1" viewBox="0.00 0.00 1024.00 1024.00">
<path fill="#8f8f8f" d="
  M 594.28 302.48
  L 594.27 302.50
  L 594.09 302.63
  L 593.91 302.67
  L 593.71 302.62
  L 563.59 287.01
  L 537.18 273.07
  L 526.69 267.56
  L 520.85 264.70
  L 517.24 263.49
  L 513.60 262.98
  L 513.60 262.98
  L 510.87 263.05
  L 508.12 263.50
  L 505.35 264.35
  L 502.56 265.58
  L 467.49 283.75
  L 466.26 284.00
  L 471.44 281.00
  L 503.68 264.30
  L 505.69 263.40
  L 507.93 262.62
  L 510.10 262.09
  L 511.76 261.90
  L 514.38 262.27
  L 518.89 263.43
  L 522.13 264.62
  L 525.39 266.38
  L 529.34 268.64
  L 535.39 271.72
  L 543.53 275.92
  L 556.72 282.83
  L 566.49 287.86
  L 578.56 294.16
  L 594.28 302.48
  Z"
/>
<path fill="#000000" d="
  M 594.28 302.48
  L 595.04 303.02
  L 595.18 303.18
  L 596.14 303.92
  L 618.23 315.46
  L 640.52 326.64
  L 649.23 331.23
  L 653.56 334.18
  L 654.03 334.93
  L 654.33 337.33
  L 654.33 337.33
  L 654.29 339.14
  L 654.02 340.96
  L 652.59 342.82
  L 651.19 343.93
  L 647.31 346.12
  L 642.90 348.91
  L 642.38 349.36
  L 642.16 349.19
  L 627.49 356.63
  L 612.98 364.33
  L 585.71 378.47
  L 584.15 379.38
  L 582.23 380.80
  L 579.98 382.03
  L 558.96 392.87
  L 557.99 393.62
  L 556.99 393.95
  L 538.70 403.31
  L 520.59 412.95
  L 517.72 414.31
  L 515.26 415.04
  L 512.09 415.35
  L 509.46 414.97
  L 504.25 412.91
  L 497.91 409.59
  L 497.24 409.32
  L 496.72 409.36
  L 496.41 409.21
  L 496.34 408.99
  L 471.78 396.57
  L 467.18 394.09
  L 467.13 393.69
  L 466.82 393.47
  L 466.44 393.42
  L 466.22 393.54
  L 465.58 393.30
  L 465.63 393.18
  L 465.64 393.07
  L 465.57 393.00
  L 440.90 380.41
  L 439.79 379.63
  L 438.70 379.37
  L 438.67 379.37
  L 438.06 378.90
  L 437.90 378.55
  L 437.20 378.55
  L 434.02 376.89
  L 423.79 371.47
  L 423.56 371.29
  L 422.88 370.71
  L 421.52 370.27
  L 421.08 369.95
  L 402.78 360.52
  L 402.12 360.12
  L 402.05 360.04
  L 401.60 359.54
  L 401.12 359.33
  L 401.12 359.33
  L 400.70 359.37
  L 400.22 359.08
  L 400.10 358.86
  L 398.94 358.06
  L 396.80 357.22
  L 396.36 357.05
  L 396.38 356.99
  L 393.29 354.99
  L 390.05 353.29
  L 390.05 353.29
  L 387.94 352.37
  L 386.54 351.98
  L 385.48 352.08
  L 384.27 352.72
  L 382.92 353.78
  L 379.80 357.14
  L 379.59 357.40
  L 379.05 358.25
  L 378.67 359.40
  L 378.47 362.55
  L 378.47 363.50
  L 378.27 389.15
  L 378.33 415.87
  L 378.33 415.97
  L 378.33 415.97
  L 378.57 416.83
  L 379.18 417.66
  L 379.66 418.07
  L 379.61 418.14
  L 383.02 420.39
  L 385.03 421.92
  L 386.81 423.70
  L 388.41 425.76
  L 389.74 428.01
  L 390.83 430.45
  L 391.62 433.00
  L 392.11 435.62
  L 392.28 438.25
  L 392.46 457.61
  L 392.31 464.57
  L 391.99 467.21
  L 391.50 469.30
  L 390.42 472.06
  L 389.04 474.58
  L 387.30 476.93
  L 385.31 479.01
  L 382.41 481.22
  L 379.20 482.92
  L 375.75 484.05
  L 372.13 484.60
  L 369.51 484.61
  L 366.88 484.30
  L 364.34 483.69
  L 361.82 482.75
  L 358.52 480.94
  L 355.72 478.64
  L 355.72 478.64
  L 355.72 478.64
  L 355.72 478.64
  L 354.24 476.98
  L 352.95 475.14
  L 351.84 473.12
  L 350.92 470.91
  L 348.97 465.34
  L 349.07 436.10
  L 349.79 433.12
  L 350.79 430.34
  L 352.07 427.78
  L 353.62 425.42
  L 353.62 425.42
  L 356.16 422.57
  L 359.19 420.09
  L 362.82 418.58
  L 363.32 418.18
  L 363.52 417.57
  L 363.92 382.03
  L 363.60 347.50
  L 363.76 344.30
  L 364.42 341.58
  L 365.45 339.41
  L 366.93 337.27
  L 367.85 336.36
  L 369.25 335.33
  L 373.50 332.89
  L 396.10 321.14
  L 415.98 310.47
  L 416.15 310.33
  L 416.27 310.01
  L 421.71 307.42
  L 460.77 287.31
  L 466.26 284.00
  L 467.49 283.75
  L 502.56 265.58
  L 505.35 264.35
  L 508.12 263.50
  L 510.87 263.05
  L 513.60 262.98
  L 513.60 262.98
  L 517.24 263.49
  L 520.85 264.70
  L 526.69 267.56
  L 537.18 273.07
  L 563.59 287.01
  L 593.71 302.62
  L 593.91 302.67
  L 594.09 302.63
  L 594.27 302.50
  L 594.28 302.48
  Z
  M 373.89 468.25
  L 375.19 467.20
  L 376.11 465.95
  L 376.11 465.95
  L 376.11 465.95
  L 376.64 464.56
  L 376.83 463.00
  L 376.95 440.22
  L 377.12 438.65
  L 376.67 436.59
  L 375.44 434.55
  L 373.75 432.94
  L 371.88 432.11
  L 371.88 432.11
  L 370.30 432.01
  L 368.62 432.39
  L 367.54 432.91
  L 366.12 434.12
  L 365.03 435.87
  L 364.35 437.97
  L 364.11 440.34
  L 364.33 461.41
  L 364.67 464.32
  L 365.03 465.43
  L 365.52 466.33
  L 367.15 468.01
  L 369.12 469.18
  L 371.08 469.64
  L 371.92 469.57
  L 372.71 469.30
  L 373.89 468.25
  Z"
/>
<path fill="#8f8f8f" d="
  M 466.26 284.00
  L 460.77 287.31
  L 421.71 307.42
  L 416.27 310.01
  L 466.26 284.00
  Z"
/>
<path fill="#8f8f8f" d="
  M 640.52 326.64
  L 618.23 315.46
  L 596.14 303.92
  L 595.18 303.18
  L 595.04 303.02
  L 640.52 326.64
  Z"
/>
<path fill="#8f8f8f" d="
  M 416.27 310.01
  L 416.15 310.33
  L 415.98 310.47
  L 396.10 321.14
  L 373.50 332.89
  L 369.25 335.33
  L 367.85 336.36
  L 366.93 337.27
  L 365.45 339.41
  L 364.42 341.58
  L 363.76 344.30
  L 363.60 347.50
  L 363.92 382.03
  L 363.52 417.57
  L 363.32 418.18
  L 362.82 418.58
  L 359.19 420.09
  L 362.32 417.71
  L 362.63 417.36
  L 362.76 416.91
  L 362.93 412.75
  L 362.95 352.34
  L 363.03 346.28
  L 363.25 343.26
  L 363.92 340.86
  L 365.00 338.71
  L 365.00 338.71
  L 365.00 338.71
  L 366.50 336.80
  L 368.41 335.14
  L 373.74 331.74
  L 380.76 328.01
  L 398.53 319.02
  L 414.57 310.53
  L 416.27 310.01
  Z"
/>
<path fill="#8f8f8f" d="
  M 653.56 334.18
  L 649.23 331.23
  L 650.79 331.87
  L 652.15 332.76
  L 653.56 334.18
  Z"
/>
<path fill="#8f8f8f" d="
  M 654.02 340.96
  L 654.29 339.14
  L 654.33 337.33
  L 654.33 337.33
  L 654.03 334.93
  L 654.74 336.36
  L 655.00 337.81
  L 655.00 337.81
  L 655.00 337.81
  L 654.77 339.38
  L 654.02 340.96
  Z"
/>
<path fill="#8f8f8f" d="
  M 654.02 340.96
  L 653.59 342.01
  L 652.90 343.01
  L 650.67 345.02
  L 647.32 347.01
  L 642.90 348.91
  L 647.31 346.12
  L 651.19 343.93
  L 652.59 342.82
  L 654.02 340.96
  Z"
/>
<path fill="#8f8f8f" d="
  M 642.16 349.19
  L 640.23 350.56
  L 637.73 351.99
  L 608.22 367.35
  L 601.99 370.65
  L 590.46 376.73
  L 582.23 380.80
  L 584.15 379.38
  L 585.71 378.47
  L 612.98 364.33
  L 627.49 356.63
  L 642.16 349.19
  Z"
/>
<path fill="#8f8f8f" d="
  M 396.38 356.99
  L 388.62 353.39
  L 388.26 353.23
  L 387.32 353.03
  L 386.34 353.07
  L 385.26 353.35
  L 384.19 353.85
  L 381.85 355.61
  L 380.06 357.82
  L 379.60 358.89
  L 379.27 360.26
  L 379.00 363.90
  L 378.92 413.75
  L 379.18 417.66
  L 378.57 416.83
  L 378.33 415.97
  L 378.33 415.97
  L 378.33 415.87
  L 378.27 389.15
  L 378.47 363.50
  L 378.47 362.55
  L 378.67 359.40
  L 379.05 358.25
  L 379.59 357.40
  L 379.80 357.14
  L 382.92 353.78
  L 384.27 352.72
  L 385.48 352.08
  L 386.54 351.98
  L 387.94 352.37
  L 390.05 353.29
  L 393.29 354.99
  L 396.38 356.99
  Z"
/>
<path fill="#8f8f8f" d="
  M 656.80 377.32
  L 658.84 375.67
  L 661.16 374.11
  L 663.73 372.64
  L 666.58 371.25
  L 667.56 370.70
  L 668.39 370.01
  L 669.08 369.16
  L 669.61 368.16
  L 670.12 366.70
  L 670.38 365.32
  L 670.39 364.02
  L 670.15 362.79
  L 669.17 360.86
  L 667.46 359.15
  L 666.02 358.18
  L 664.65 357.56
  L 663.35 357.28
  L 662.11 357.33
  L 660.70 357.86
  L 657.72 359.47
  L 652.53 361.87
  L 658.94 358.21
  L 660.82 357.42
  L 662.59 357.00
  L 664.23 356.93
  L 665.76 357.23
  L 665.76 357.23
  L 667.60 358.18
  L 669.24 359.76
  L 670.37 361.53
  L 670.99 363.39
  L 671.15 364.73
  L 671.08 366.09
  L 670.79 367.46
  L 670.29 368.84
  L 669.31 370.12
  L 667.49 371.43
  L 662.09 374.52
  L 656.80 377.32
  Z"
/>
<path fill="#8f8f8f" d="
  M 400.10 358.86
  L 398.17 358.13
  L 396.80 357.22
  L 398.94 358.06
  L 400.10 358.86
  Z"
/>
<path fill="#000000" d="
  M 656.80 377.32
  L 657.10 423.25
  L 656.90 425.57
  L 656.29 427.65
  L 655.35 429.27
  L 654.13 430.41
  L 652.77 431.18
  L 651.36 431.70
  L 649.84 432.00
  L 648.33 432.04
  L 646.87 431.82
  L 645.50 431.36
  L 644.24 430.64
  L 643.14 429.70
  L 642.32 428.66
  L 641.67 427.44
  L 641.25 426.15
  L 641.03 424.72
  L 640.86 417.31
  L 640.83 401.15
  L 640.94 397.21
  L 641.07 391.05
  L 640.84 386.66
  L 640.76 386.40
  L 640.34 386.07
  L 639.80 386.14
  L 638.20 386.91
  L 636.75 387.18
  L 633.40 388.03
  L 630.49 388.26
  L 628.03 387.88
  L 626.02 386.88
  L 624.80 385.73
  L 623.84 384.23
  L 623.13 382.39
  L 622.67 380.20
  L 623.26 378.84
  L 625.14 376.55
  L 627.36 374.84
  L 628.32 374.33
  L 632.40 372.27
  L 635.75 370.28
  L 644.57 365.85
  L 645.46 365.66
  L 646.96 365.02
  L 648.35 364.00
  L 648.35 363.92
  L 648.47 363.84
  L 649.14 363.83
  L 649.14 363.83
  L 649.72 363.56
  L 650.24 363.01
  L 651.02 362.88
  L 651.66 362.56
  L 652.20 361.97
  L 652.54 361.80
  L 652.53 361.87
  L 657.72 359.47
  L 660.70 357.86
  L 662.11 357.33
  L 663.35 357.28
  L 664.65 357.56
  L 666.02 358.18
  L 667.46 359.15
  L 669.17 360.86
  L 670.15 362.79
  L 670.39 364.02
  L 670.38 365.32
  L 670.12 366.70
  L 669.61 368.16
  L 669.08 369.16
  L 668.39 370.01
  L 667.56 370.70
  L 666.58 371.25
  L 663.73 372.64
  L 661.16 374.11
  L 658.84 375.67
  L 656.80 377.32
  Z"
/>
<path fill="#8f8f8f" d="
  M 402.05 360.04
  L 401.93 360.01
  L 400.70 359.37
  L 401.12 359.33
  L 401.12 359.33
  L 401.60 359.54
  L 402.05 360.04
  Z"
/>
<path fill="#8f8f8f" d="
  M 421.08 369.95
  L 402.78 360.52
  L 421.08 369.95
  Z"
/>
<path fill="#8f8f8f" d="
  M 652.20 361.97
  L 651.66 362.56
  L 651.66 362.56
  L 651.02 362.88
  L 650.24 363.01
  L 650.43 362.82
  L 651.22 362.29
  L 652.20 361.97
  Z"
/>
<path fill="#8f8f8f" d="
  M 650.24 363.01
  L 649.72 363.56
  L 649.14 363.83
  L 649.14 363.83
  L 648.47 363.84
  L 649.35 363.29
  L 650.24 363.01
  Z"
/>
<path fill="#8f8f8f" d="
  M 648.35 364.00
  L 646.96 365.02
  L 645.46 365.66
  L 644.57 365.85
  L 648.35 364.00
  Z"
/>
<path fill="#8f8f8f" d="
  M 423.56 371.29
  L 422.42 370.90
  L 421.52 370.27
  L 422.88 370.71
  L 423.56 371.29
  Z"
/>
<path fill="#8f8f8f" d="
  M 635.75 370.28
  L 632.40 372.27
  L 628.32 374.33
  L 627.36 374.84
  L 625.14 376.55
  L 623.26 378.84
  L 623.65 377.54
  L 624.29 376.43
  L 624.29 376.43
  L 625.17 375.51
  L 626.29 374.78
  L 635.75 370.28
  Z"
/>
<path fill="#8f8f8f" d="
  M 434.02 376.89
  L 423.79 371.47
  L 434.02 376.89
  Z"
/>
<path fill="#8f8f8f" d="
  M 432.47 393.66
  L 424.67 390.00
  L 412.03 383.52
  L 405.75 380.26
  L 402.01 378.63
  L 401.49 378.51
  L 401.49 378.51
  L 401.49 378.51
  L 400.71 378.53
  L 399.89 378.78
  L 398.19 379.95
  L 398.54 379.03
  L 399.07 378.43
  L 399.92 378.07
  L 400.91 378.04
  L 402.14 378.32
  L 403.55 378.88
  L 407.51 380.76
  L 407.51 380.76
  L 420.08 387.02
  L 432.47 393.66
  Z"
/>
<path fill="#000000" d="
  M 432.47 393.66
  L 444.25 399.76
  L 454.60 405.51
  L 461.21 408.82
  L 467.93 411.92
  L 471.52 413.73
  L 474.14 415.39
  L 477.16 416.63
  L 478.43 417.16
  L 479.55 417.88
  L 479.55 417.88
  L 479.73 418.02
  L 489.46 423.24
  L 499.29 428.27
  L 499.29 428.27
  L 508.10 432.58
  L 510.81 433.51
  L 513.45 433.68
  L 515.02 433.40
  L 516.57 432.85
  L 523.17 429.58
  L 531.11 425.12
  L 531.28 424.80
  L 531.78 424.67
  L 539.70 420.96
  L 547.51 417.04
  L 547.51 417.04
  L 560.21 410.10
  L 560.29 409.94
  L 560.75 409.68
  L 561.16 409.63
  L 561.55 409.49
  L 571.81 404.22
  L 581.04 399.43
  L 599.28 390.30
  L 601.00 389.87
  L 602.33 389.61
  L 603.60 390.03
  L 604.80 390.94
  L 607.84 395.18
  L 608.25 397.23
  L 608.08 399.21
  L 607.46 400.77
  L 606.34 402.30
  L 604.69 403.78
  L 602.48 405.23
  L 601.58 405.93
  L 601.15 406.65
  L 601.10 407.63
  L 601.53 409.01
  L 601.94 410.23
  L 603.21 415.84
  L 604.15 421.45
  L 604.74 427.06
  L 604.98 432.68
  L 604.98 432.68
  L 604.99 433.75
  L 604.73 440.29
  L 603.94 446.63
  L 602.61 452.77
  L 600.73 458.72
  L 600.73 458.72
  L 600.73 458.72
  L 599.48 461.89
  L 601.48 464.63
  L 604.35 468.62
  L 606.05 471.44
  L 608.43 476.79
  L 610.15 482.47
  L 611.20 488.37
  L 611.55 494.37
  L 611.20 500.21
  L 610.15 505.94
  L 608.41 511.35
  L 606.05 516.27
  L 603.59 520.76
  L 599.23 525.18
  L 597.17 526.38
  L 595.47 527.84
  L 595.21 528.36
  L 595.28 528.94
  L 597.43 534.73
  L 598.75 540.39
  L 599.08 543.13
  L 599.22 545.87
  L 599.14 548.53
  L 598.86 551.19
  L 598.02 555.18
  L 596.67 559.18
  L 594.18 563.95
  L 589.76 570.72
  L 585.53 574.98
  L 582.26 576.99
  L 579.67 579.39
  L 579.51 579.24
  L 579.07 579.31
  L 560.59 589.19
  L 541.60 598.90
  L 533.37 602.88
  L 530.23 604.15
  L 526.52 605.24
  L 522.24 606.14
  L 517.38 606.87
  L 506.24 606.96
  L 501.73 606.29
  L 497.53 605.37
  L 493.62 604.19
  L 490.02 602.75
  L 481.90 598.87
  L 469.92 592.81
  L 452.03 583.84
  L 445.20 580.26
  L 442.57 578.63
  L 440.45 577.10
  L 436.22 573.25
  L 434.34 571.15
  L 432.64 568.93
  L 431.13 566.66
  L 429.80 564.28
  L 428.66 561.82
  L 427.70 559.26
  L 426.95 556.68
  L 426.39 554.02
  L 426.02 551.30
  L 425.86 548.50
  L 426.06 545.00
  L 426.74 541.50
  L 427.87 538.16
  L 429.38 535.14
  L 431.73 531.07
  L 431.87 530.59
  L 431.80 530.10
  L 431.45 529.66
  L 431.27 529.62
  L 430.32 529.02
  L 429.02 527.70
  L 427.76 527.05
  L 426.23 525.78
  L 425.02 524.29
  L 422.49 519.24
  L 421.66 517.06
  L 421.12 515.12
  L 420.07 510.72
  L 420.08 501.25
  L 420.96 496.98
  L 421.70 493.66
  L 422.75 490.55
  L 424.11 487.67
  L 425.78 485.01
  L 425.78 485.01
  L 427.60 482.75
  L 429.69 480.67
  L 432.04 478.79
  L 434.66 477.09
  L 435.14 476.65
  L 435.41 476.66
  L 435.49 476.63
  L 435.46 476.56
  L 434.45 475.58
  L 434.45 475.58
  L 433.25 474.89
  L 431.85 474.48
  L 426.20 470.62
  L 423.51 467.94
  L 422.65 466.38
  L 422.65 466.38
  L 421.80 465.37
  L 420.76 464.49
  L 420.64 464.40
  L 420.54 464.25
  L 418.49 460.48
  L 417.35 458.29
  L 416.35 455.68
  L 415.56 452.87
  L 414.95 449.72
  L 414.54 446.33
  L 414.31 442.72
  L 414.29 438.91
  L 414.48 435.10
  L 415.06 430.50
  L 416.09 426.23
  L 417.54 422.31
  L 419.44 418.72
  L 421.11 416.50
  L 423.65 413.83
  L 428.24 409.23
  L 424.34 407.02
  L 411.75 400.49
  L 411.12 400.09
  L 411.08 400.03
  L 409.79 399.00
  L 407.21 397.71
  L 407.19 397.71
  L 406.77 397.34
  L 403.99 394.43
  L 401.74 391.22
  L 401.74 391.22
  L 400.03 387.71
  L 398.16 383.50
  L 397.93 382.21
  L 397.93 382.21
  L 397.96 381.09
  L 398.19 379.95
  L 399.89 378.78
  L 400.71 378.53
  L 401.49 378.51
  L 401.49 378.51
  L 401.49 378.51
  L 402.01 378.63
  L 405.75 380.26
  L 412.03 383.52
  L 424.67 390.00
  L 432.47 393.66
  Z
  M 569.29 422.70
  L 562.44 426.27
  L 516.45 449.28
  L 509.47 449.00
  L 506.72 448.15
  L 504.81 448.01
  L 499.91 445.67
  L 495.09 443.21
  L 491.97 441.73
  L 488.65 440.58
  L 476.20 434.10
  L 475.96 433.59
  L 475.48 433.33
  L 474.76 433.29
  L 474.35 433.02
  L 474.37 432.98
  L 465.09 427.85
  L 455.79 423.52
  L 455.19 423.37
  L 454.80 423.07
  L 454.80 423.07
  L 454.77 423.03
  L 453.61 422.02
  L 452.41 421.62
  L 452.41 421.62
  L 451.86 421.63
  L 449.38 419.86
  L 447.11 418.74
  L 445.07 418.29
  L 443.25 418.49
  L 437.76 421.73
  L 434.89 423.51
  L 432.67 425.78
  L 432.67 425.78
  L 432.67 425.78
  L 431.60 427.46
  L 430.78 429.34
  L 429.84 433.40
  L 429.30 438.99
  L 429.27 441.94
  L 429.52 444.79
  L 430.04 447.55
  L 430.83 450.21
  L 430.83 450.21
  L 430.83 450.21
  L 432.31 453.60
  L 434.27 456.82
  L 440.66 461.55
  L 465.24 474.20
  L 470.55 476.72
  L 474.43 478.92
  L 479.32 481.40
  L 489.87 486.41
  L 502.08 491.96
  L 504.83 493.00
  L 507.52 493.62
  L 510.14 493.83
  L 512.69 493.62
  L 512.69 493.62
  L 514.91 493.09
  L 520.90 490.76
  L 528.56 487.05
  L 574.04 463.45
  L 577.49 461.54
  L 580.09 459.84
  L 582.16 458.13
  L 583.78 456.35
  L 585.73 453.24
  L 587.25 449.29
  L 588.44 444.09
  L 588.70 441.71
  L 588.73 439.46
  L 588.73 428.68
  L 588.63 424.99
  L 588.28 421.38
  L 587.69 417.85
  L 586.85 414.40
  L 586.83 414.33
  L 586.40 413.91
  L 585.81 413.95
  L 569.29 422.70
  Z
  M 603.82 424.93
  L 603.92 425.16
  L 603.93 425.16
  L 603.99 425.15
  L 604.04 424.96
  L 603.98 424.71
  L 603.82 424.93
  Z
  M 437.26 514.82
  L 437.79 515.14
  L 437.59 515.22
  L 438.18 515.81
  L 440.31 517.19
  L 443.84 519.10
  L 488.12 540.46
  L 496.47 544.35
  L 503.44 547.38
  L 506.20 548.40
  L 508.87 549.11
  L 511.56 549.54
  L 514.18 549.68
  L 517.65 549.42
  L 521.28 548.62
  L 524.98 547.31
  L 528.94 545.44
  L 579.75 518.86
  L 585.71 515.50
  L 589.28 513.15
  L 591.28 511.51
  L 592.53 510.00
  L 593.57 508.36
  L 594.47 506.50
  L 595.16 504.54
  L 595.70 502.37
  L 596.09 499.92
  L 596.38 494.52
  L 596.25 491.52
  L 595.89 488.53
  L 595.31 485.69
  L 594.49 482.92
  L 593.49 480.39
  L 592.25 477.98
  L 590.84 475.78
  L 589.20 473.72
  L 588.42 473.24
  L 587.52 473.42
  L 541.83 497.31
  L 528.48 503.98
  L 520.50 507.52
  L 518.15 508.27
  L 515.84 508.79
  L 513.32 509.09
  L 510.84 509.16
  L 508.31 509.00
  L 505.59 508.60
  L 499.91 507.14
  L 492.78 504.50
  L 482.87 500.23
  L 473.24 495.52
  L 460.67 489.06
  L 452.57 485.09
  L 451.50 484.83
  L 450.42 485.02
  L 445.47 487.31
  L 443.33 488.61
  L 441.50 489.96
  L 439.93 491.37
  L 438.54 492.94
  L 437.43 494.57
  L 436.51 496.35
  L 435.86 498.19
  L 435.43 500.20
  L 435.10 503.64
  L 435.06 507.31
  L 435.31 510.62
  L 435.82 513.38
  L 436.08 514.02
  L 436.48 514.48
  L 437.26 514.82
  Z
  M 452.01 540.40
  L 448.80 539.09
  L 447.80 538.18
  L 446.71 537.72
  L 446.04 537.67
  L 445.56 537.79
  L 445.20 538.07
  L 443.51 540.31
  L 442.24 542.60
  L 441.38 544.92
  L 440.94 547.29
  L 440.94 547.29
  L 440.94 547.29
  L 440.92 549.84
  L 441.37 552.44
  L 442.29 555.09
  L 443.68 557.78
  L 445.39 560.64
  L 447.49 563.10
  L 447.49 563.10
  L 449.26 564.62
  L 451.23 565.93
  L 453.40 567.03
  L 455.78 567.92
  L 458.25 569.08
  L 458.38 569.60
  L 458.52 569.71
  L 486.95 584.13
  L 495.62 588.23
  L 498.94 589.56
  L 501.60 590.40
  L 506.95 591.43
  L 512.30 591.79
  L 516.87 591.57
  L 521.44 590.85
  L 524.37 590.01
  L 527.95 588.59
  L 532.17 586.60
  L 537.04 584.02
  L 568.78 567.29
  L 571.79 565.52
  L 574.52 563.47
  L 576.94 561.18
  L 579.03 558.67
  L 580.75 555.97
  L 582.09 553.10
  L 582.99 550.19
  L 583.48 547.15
  L 583.56 544.51
  L 583.31 541.81
  L 582.74 539.17
  L 581.83 536.50
  L 581.81 536.45
  L 581.11 535.81
  L 580.16 535.88
  L 536.24 559.24
  L 532.54 561.05
  L 528.79 562.51
  L 524.99 563.63
  L 521.13 564.41
  L 521.13 564.41
  L 516.30 564.90
  L 511.38 564.86
  L 507.59 564.38
  L 503.47 563.40
  L 498.96 561.91
  L 493.72 559.80
  L 474.33 551.09
  L 456.98 542.59
  L 452.01 540.40
  Z"
/>
<path fill="#8f8f8f" d="
  M 438.06 378.90
  L 437.70 378.84
  L 437.20 378.55
  L 437.90 378.55
  L 438.06 378.90
  Z"
/>
<path fill="#8f8f8f" d="
  M 440.90 380.41
  L 440.77 380.40
  L 440.77 380.40
  L 439.71 380.08
  L 438.70 379.37
  L 439.79 379.63
  L 440.90 380.41
  Z"
/>
<path fill="#8f8f8f" d="
  M 636.75 387.18
  L 634.55 388.30
  L 632.50 388.96
  L 630.62 389.16
  L 628.90 388.90
  L 627.17 388.26
  L 625.72 387.46
  L 624.54 386.48
  L 623.65 385.33
  L 623.65 385.33
  L 623.65 385.33
  L 623.65 385.33
  L 623.11 384.23
  L 622.76 383.01
  L 622.62 381.67
  L 622.67 380.20
  L 623.13 382.39
  L 623.84 384.23
  L 624.80 385.73
  L 626.02 386.88
  L 628.03 387.88
  L 630.49 388.26
  L 633.40 388.03
  L 636.75 387.18
  Z"
/>
<path fill="#8f8f8f" d="
  M 465.58 393.30
  L 440.90 380.41
  L 465.57 393.00
  L 465.64 393.07
  L 465.63 393.18
  L 465.58 393.30
  Z"
/>
<path fill="#8f8f8f" d="
  M 579.98 382.03
  L 558.96 392.87
  L 579.98 382.03
  Z"
/>
<path fill="#8f8f8f" d="
  M 406.77 397.34
  L 405.64 396.87
  L 404.78 396.22
  L 403.05 394.22
  L 401.55 392.07
  L 401.55 392.07
  L 401.55 392.07
  L 400.44 390.09
  L 399.50 388.00
  L 398.16 383.50
  L 400.03 387.71
  L 401.74 391.22
  L 401.74 391.22
  L 403.99 394.43
  L 406.77 397.34
  Z"
/>
<path fill="#8f8f8f" d="
  M 602.33 389.61
  L 601.00 389.87
  L 599.28 390.30
  L 581.04 399.43
  L 571.81 404.22
  L 561.55 409.49
  L 561.16 409.63
  L 560.75 409.68
  L 566.53 406.26
  L 599.62 389.60
  L 600.66 389.29
  L 600.66 389.29
  L 601.48 389.33
  L 602.33 389.61
  Z"
/>
<path fill="#8f8f8f" d="
  M 607.84 395.18
  L 604.80 390.94
  L 606.23 391.91
  L 606.23 391.91
  L 607.25 393.32
  L 607.84 395.18
  Z"
/>
<path fill="#8f8f8f" d="
  M 467.18 394.09
  L 466.22 393.54
  L 466.44 393.42
  L 466.82 393.47
  L 467.13 393.69
  L 467.18 394.09
  Z"
/>
<path fill="#8f8f8f" d="
  M 556.99 393.95
  L 542.20 402.16
  L 527.25 409.99
  L 523.72 411.99
  L 520.54 413.80
  L 518.16 414.90
  L 514.82 415.83
  L 511.52 416.00
  L 511.52 416.00
  L 509.73 415.78
  L 507.96 415.34
  L 506.20 414.67
  L 504.46 413.77
  L 496.72 409.36
  L 497.24 409.32
  L 497.91 409.59
  L 504.25 412.91
  L 509.46 414.97
  L 512.09 415.35
  L 515.26 415.04
  L 517.72 414.31
  L 520.59 412.95
  L 538.70 403.31
  L 556.99 393.95
  Z"
/>
<path fill="#8f8f8f" d="
  M 496.34 408.99
  L 471.78 396.57
  L 496.34 408.99
  Z"
/>
<path fill="#8f8f8f" d="
  M 411.08 400.03
  L 408.54 398.76
  L 407.21 397.71
  L 409.79 399.00
  L 411.08 400.03
  Z"
/>
<path fill="#8f8f8f" d="
  M 467.93 411.92
  L 461.21 408.82
  L 454.60 405.51
  L 444.25 399.76
  L 467.93 411.92
  Z"
/>
<path fill="#8f8f8f" d="
  M 424.34 407.02
  L 411.75 400.49
  L 424.34 407.02
  Z"
/>
<path fill="#8f8f8f" d="
  M 428.24 409.23
  L 423.65 413.83
  L 421.11 416.50
  L 419.44 418.72
  L 417.54 422.31
  L 416.09 426.23
  L 415.06 430.50
  L 414.48 435.10
  L 414.29 438.91
  L 414.31 442.72
  L 414.54 446.33
  L 414.95 449.72
  L 415.56 452.87
  L 416.35 455.68
  L 417.35 458.29
  L 418.49 460.48
  L 420.54 464.25
  L 419.05 462.53
  L 417.87 460.65
  L 417.87 460.65
  L 417.40 459.66
  L 415.70 454.84
  L 414.55 449.71
  L 413.93 444.26
  L 413.85 438.50
  L 414.10 434.31
  L 414.56 430.46
  L 415.22 426.97
  L 416.09 423.83
  L 416.68 422.24
  L 416.68 422.24
  L 416.68 422.24
  L 418.57 418.58
  L 421.13 415.19
  L 424.35 412.07
  L 428.24 409.23
  Z"
/>
<path fill="#8f8f8f" d="
  M 560.21 410.10
  L 547.51 417.04
  L 539.70 420.96
  L 531.78 424.67
  L 544.48 417.73
  L 544.48 417.73
  L 552.29 413.81
  L 560.21 410.10
  Z"
/>
<path fill="#8f8f8f" d="
  M 477.16 416.63
  L 474.14 415.39
  L 471.52 413.73
  L 474.26 414.85
  L 477.16 416.63
  Z"
/>
<path fill="#8f8f8f" d="
  M 588.73 428.68
  L 586.73 416.46
  L 586.68 416.23
  L 586.34 415.64
  L 585.78 415.25
  L 585.11 415.12
  L 584.45 415.28
  L 569.29 422.70
  L 585.81 413.95
  L 586.40 413.91
  L 586.83 414.33
  L 586.85 414.40
  L 587.69 417.85
  L 588.28 421.38
  L 588.63 424.99
  L 588.73 428.68
  Z"
/>
<path fill="#8f8f8f" d="
  M 348.97 465.34
  L 350.92 470.91
  L 351.84 473.12
  L 352.95 475.14
  L 354.24 476.98
  L 355.72 478.64
  L 355.72 478.64
  L 355.72 478.64
  L 358.52 480.94
  L 361.82 482.75
  L 364.34 483.69
  L 366.88 484.30
  L 369.51 484.61
  L 372.13 484.60
  L 375.75 484.05
  L 379.20 482.92
  L 382.41 481.22
  L 385.31 479.01
  L 387.30 476.93
  L 389.04 474.58
  L 390.42 472.06
  L 391.50 469.30
  L 391.99 467.21
  L 392.31 464.57
  L 392.46 457.61
  L 392.28 438.25
  L 392.11 435.62
  L 391.62 433.00
  L 390.83 430.45
  L 389.74 428.01
  L 388.41 425.76
  L 386.81 423.70
  L 385.03 421.92
  L 383.02 420.39
  L 379.61 418.14
  L 380.42 418.12
  L 381.26 418.45
  L 384.33 420.71
  L 386.99 423.32
  L 386.99 423.32
  L 389.27 426.33
  L 391.14 429.70
  L 391.93 431.83
  L 392.52 434.36
  L 392.92 437.30
  L 393.11 440.64
  L 393.28 453.89
  L 393.02 464.52
  L 392.72 467.03
  L 392.09 469.55
  L 391.15 472.02
  L 389.91 474.39
  L 388.43 476.58
  L 386.71 478.57
  L 384.83 480.26
  L 382.77 481.67
  L 379.96 483.11
  L 377.05 484.18
  L 374.06 484.88
  L 371.06 485.20
  L 368.10 485.13
  L 365.20 484.65
  L 362.49 483.80
  L 359.91 482.56
  L 357.40 480.86
  L 355.11 478.71
  L 353.14 476.34
  L 351.58 474.00
  L 350.36 471.54
  L 349.54 469.10
  L 348.97 465.34
  Z"
/>
<path fill="#8f8f8f" d="
  M 451.86 421.63
  L 443.25 418.49
  L 445.07 418.29
  L 447.11 418.74
  L 449.38 419.86
  L 451.86 421.63
  Z"
/>
<path fill="#8f8f8f" d="
  M 531.11 425.12
  L 523.17 429.58
  L 516.57 432.85
  L 515.02 433.40
  L 513.45 433.68
  L 510.81 433.51
  L 508.10 432.58
  L 499.29 428.27
  L 489.46 423.24
  L 479.73 418.02
  L 495.67 425.76
  L 506.02 431.20
  L 507.61 431.99
  L 509.21 432.54
  L 510.79 432.86
  L 512.37 432.94
  L 512.37 432.94
  L 514.82 432.61
  L 517.26 431.71
  L 531.11 425.12
  Z"
/>
<path fill="#8f8f8f" d="
  M 359.19 420.09
  L 356.16 422.57
  L 353.62 425.42
  L 353.62 425.42
  L 353.62 425.42
  L 352.07 427.78
  L 350.79 430.34
  L 349.79 433.12
  L 349.07 436.10
  L 349.06 435.53
  L 349.41 432.70
  L 350.38 429.86
  L 352.02 426.85
  L 354.46 423.44
  L 355.54 422.25
  L 356.76 421.27
  L 359.19 420.09
  Z"
/>
<path fill="#8f8f8f" d="
  M 454.77 423.03
  L 453.15 422.46
  L 451.86 421.63
  L 452.41 421.62
  L 453.61 422.02
  L 454.77 423.03
  Z"
/>
<path fill="#8f8f8f" d="
  M 437.76 421.73
  L 436.00 423.13
  L 434.46 424.65
  L 433.14 426.29
  L 432.04 428.05
  L 432.04 428.05
  L 432.04 428.05
  L 430.82 430.83
  L 430.19 433.92
  L 429.98 438.46
  L 429.96 439.76
  L 430.09 443.74
  L 430.69 447.62
  L 430.69 447.62
  L 432.11 452.30
  L 434.27 456.82
  L 432.31 453.60
  L 430.83 450.21
  L 430.83 450.21
  L 430.83 450.21
  L 430.04 447.55
  L 429.52 444.79
  L 429.27 441.94
  L 429.30 438.99
  L 429.84 433.40
  L 430.78 429.34
  L 431.60 427.46
  L 432.67 425.78
  L 432.67 425.78
  L 432.67 425.78
  L 434.89 423.51
  L 437.76 421.73
  Z"
/>
<path fill="#8f8f8f" d="
  M 474.37 432.98
  L 468.42 430.30
  L 462.60 427.37
  L 455.79 423.52
  L 465.09 427.85
  L 474.37 432.98
  Z"
/>
<path fill="#8f8f8f" d="
  M 603.82 424.93
  L 603.98 424.71
  L 604.04 424.96
  L 603.99 425.15
  L 603.93 425.16
  L 603.92 425.16
  L 603.82 424.93
  Z"
/>
<path fill="#8f8f8f" d="
  M 562.44 426.27
  L 541.29 437.79
  L 533.94 441.57
  L 527.36 444.75
  L 521.52 447.32
  L 516.45 449.28
  L 562.44 426.27
  Z"
/>
<path fill="#8f8f8f" d="
  M 376.95 440.22
  L 376.69 438.48
  L 376.27 436.97
  L 375.68 435.67
  L 374.93 434.60
  L 374.14 433.85
  L 373.26 433.31
  L 372.20 432.94
  L 371.11 432.82
  L 370.01 432.91
  L 368.94 433.22
  L 367.93 433.72
  L 367.03 434.41
  L 366.26 435.26
  L 365.67 436.28
  L 365.30 437.36
  L 365.14 438.55
  L 364.88 459.81
  L 365.13 462.84
  L 365.90 465.45
  L 367.12 467.36
  L 368.69 468.52
  L 369.80 468.87
  L 371.07 468.94
  L 372.40 468.74
  L 373.89 468.25
  L 372.71 469.30
  L 371.92 469.57
  L 371.08 469.64
  L 369.12 469.18
  L 367.15 468.01
  L 365.52 466.33
  L 365.03 465.43
  L 364.67 464.32
  L 364.33 461.41
  L 364.11 440.34
  L 364.35 437.97
  L 365.03 435.87
  L 366.12 434.12
  L 367.54 432.91
  L 368.62 432.39
  L 370.30 432.01
  L 371.88 432.11
  L 371.88 432.11
  L 373.75 432.94
  L 375.44 434.55
  L 376.67 436.59
  L 377.12 438.65
  L 376.95 440.22
  Z"
/>
<path fill="#8f8f8f" d="
  M 476.20 434.10
  L 474.76 433.29
  L 475.48 433.33
  L 475.96 433.59
  L 476.20 434.10
  Z"
/>
<path fill="#8f8f8f" d="
  M 588.73 439.46
  L 588.70 441.71
  L 588.44 444.09
  L 587.25 449.29
  L 585.73 453.24
  L 583.78 456.35
  L 582.16 458.13
  L 580.09 459.84
  L 577.49 461.54
  L 574.04 463.45
  L 528.56 487.05
  L 520.90 490.76
  L 514.91 493.09
  L 512.69 493.62
  L 512.69 493.62
  L 510.14 493.83
  L 507.52 493.62
  L 504.83 493.00
  L 502.08 491.96
  L 489.87 486.41
  L 479.32 481.40
  L 474.43 478.92
  L 470.55 476.72
  L 473.48 477.96
  L 478.75 480.33
  L 489.72 485.75
  L 501.24 490.88
  L 504.32 491.98
  L 507.35 492.66
  L 510.31 492.90
  L 513.22 492.72
  L 513.22 492.72
  L 513.22 492.72
  L 514.61 492.48
  L 518.68 490.95
  L 526.43 487.29
  L 538.47 481.22
  L 550.39 474.91
  L 575.18 462.48
  L 577.18 461.20
  L 580.44 458.68
  L 582.81 456.43
  L 584.70 453.88
  L 584.70 453.88
  L 586.15 450.89
  L 587.07 447.57
  L 588.73 439.46
  Z"
/>
<path fill="#8f8f8f" d="
  M 504.81 448.01
  L 498.87 445.65
  L 493.10 442.95
  L 493.10 442.95
  L 488.65 440.58
  L 491.97 441.73
  L 495.09 443.21
  L 499.91 445.67
  L 504.81 448.01
  Z"
/>
<path fill="#8f8f8f" d="
  M 509.47 449.00
  L 506.93 448.73
  L 504.81 448.01
  L 506.72 448.15
  L 509.47 449.00
  Z"
/>
<path fill="#8f8f8f" d="
  M 440.66 461.55
  L 465.24 474.20
  L 440.66 461.55
  Z"
/>
<path fill="#8f8f8f" d="
  M 603.59 520.76
  L 606.05 516.27
  L 608.41 511.35
  L 610.15 505.94
  L 611.20 500.21
  L 611.55 494.37
  L 611.20 488.37
  L 610.15 482.47
  L 608.43 476.79
  L 606.05 471.44
  L 604.35 468.62
  L 601.48 464.63
  L 599.48 461.89
  L 602.28 464.94
  L 604.74 468.22
  L 604.74 468.22
  L 604.74 468.22
  L 606.90 471.81
  L 608.69 475.63
  L 610.14 479.70
  L 611.22 484.00
  L 611.93 488.40
  L 612.26 492.74
  L 612.20 497.02
  L 611.76 501.24
  L 611.76 501.24
  L 611.02 505.05
  L 609.96 508.81
  L 608.58 512.52
  L 606.88 516.18
  L 606.44 516.98
  L 606.44 516.98
  L 605.14 518.95
  L 603.59 520.76
  Z"
/>
<path fill="#8f8f8f" d="
  M 423.51 467.94
  L 421.62 465.90
  L 420.76 464.49
  L 421.80 465.37
  L 422.65 466.38
  L 423.51 467.94
  Z"
/>
<path fill="#8f8f8f" d="
  M 431.85 474.48
  L 431.41 474.29
  L 428.68 472.73
  L 426.20 470.62
  L 431.85 474.48
  Z"
/>
<path fill="#8f8f8f" d="
  M 437.79 515.14
  L 445.81 509.46
  L 454.11 504.26
  L 454.11 504.26
  L 454.11 504.26
  L 462.14 499.84
  L 470.41 495.85
  L 470.75 495.43
  L 470.60 494.92
  L 470.44 494.80
  L 452.11 485.61
  L 451.61 485.46
  L 451.07 485.51
  L 448.32 486.42
  L 445.82 487.59
  L 443.54 489.01
  L 441.51 490.68
  L 439.46 492.91
  L 437.73 495.48
  L 436.91 497.20
  L 436.46 498.68
  L 436.16 500.39
  L 436.00 505.22
  L 435.99 507.50
  L 436.28 511.52
  L 436.68 513.26
  L 437.26 514.82
  L 436.48 514.48
  L 436.08 514.02
  L 435.82 513.38
  L 435.31 510.62
  L 435.06 507.31
  L 435.10 503.64
  L 435.43 500.20
  L 435.86 498.19
  L 436.51 496.35
  L 437.43 494.57
  L 438.54 492.94
  L 439.93 491.37
  L 441.50 489.96
  L 443.33 488.61
  L 445.47 487.31
  L 450.42 485.02
  L 451.50 484.83
  L 452.57 485.09
  L 460.67 489.06
  L 473.24 495.52
  L 482.87 500.23
  L 492.78 504.50
  L 499.91 507.14
  L 505.59 508.60
  L 508.31 509.00
  L 510.84 509.16
  L 513.32 509.09
  L 515.84 508.79
  L 518.15 508.27
  L 520.50 507.52
  L 528.48 503.98
  L 541.83 497.31
  L 587.52 473.42
  L 588.42 473.24
  L 589.20 473.72
  L 590.84 475.78
  L 592.25 477.98
  L 593.49 480.39
  L 594.49 482.92
  L 595.31 485.69
  L 595.89 488.53
  L 596.25 491.52
  L 596.38 494.52
  L 596.09 499.92
  L 595.70 502.37
  L 595.16 504.54
  L 594.47 506.50
  L 593.57 508.36
  L 592.53 510.00
  L 591.28 511.51
  L 589.28 513.15
  L 585.71 515.50
  L 579.75 518.86
  L 528.94 545.44
  L 524.98 547.31
  L 521.28 548.62
  L 517.65 549.42
  L 514.18 549.68
  L 511.56 549.54
  L 508.87 549.11
  L 506.20 548.40
  L 503.44 547.38
  L 496.47 544.35
  L 488.12 540.46
  L 443.84 519.10
  L 440.31 517.19
  L 438.18 515.81
  L 437.59 515.22
  L 437.79 515.14
  Z"
/>
<path fill="#8f8f8f" d="
  M 435.14 476.65
  L 433.23 475.71
  L 431.85 474.48
  L 433.25 474.89
  L 434.45 475.58
  L 434.45 475.58
  L 435.46 476.56
  L 435.49 476.63
  L 435.41 476.66
  L 435.14 476.65
  Z"
/>
<path fill="#8f8f8f" d="
  M 434.66 477.09
  L 432.04 478.79
  L 429.69 480.67
  L 427.60 482.75
  L 425.78 485.01
  L 425.78 485.01
  L 425.78 485.01
  L 424.11 487.67
  L 422.75 490.55
  L 421.70 493.66
  L 420.96 496.98
  L 420.08 501.25
  L 420.02 498.71
  L 420.21 496.99
  L 421.03 493.98
  L 421.98 491.24
  L 423.07 488.70
  L 424.37 486.28
  L 425.76 484.16
  L 427.35 482.19
  L 429.05 480.47
  L 430.96 478.91
  L 433.80 477.13
  L 434.66 477.09
  Z"
/>
<path fill="#8f8f8f" d="
  M 425.02 524.29
  L 423.05 521.66
  L 421.58 518.83
  L 421.58 518.83
  L 420.90 516.93
  L 420.42 514.94
  L 420.15 512.87
  L 420.07 510.72
  L 421.12 515.12
  L 421.66 517.06
  L 422.49 519.24
  L 425.02 524.29
  Z"
/>
<path fill="#8f8f8f" d="
  M 599.23 525.18
  L 596.27 528.49
  L 595.93 529.23
  L 596.08 530.03
  L 597.52 533.05
  L 598.64 536.10
  L 599.44 539.18
  L 599.91 542.30
  L 600.06 546.08
  L 599.73 549.92
  L 598.94 553.79
  L 597.69 557.72
  L 596.00 561.71
  L 594.11 565.21
  L 592.03 568.21
  L 589.76 570.72
  L 594.18 563.95
  L 596.67 559.18
  L 598.02 555.18
  L 598.86 551.19
  L 599.14 548.53
  L 599.22 545.87
  L 599.08 543.13
  L 598.75 540.39
  L 597.43 534.73
  L 595.28 528.94
  L 595.21 528.36
  L 595.47 527.84
  L 597.17 526.38
  L 599.23 525.18
  Z"
/>
<path fill="#8f8f8f" d="
  M 430.32 529.02
  L 429.37 528.63
  L 428.57 528.07
  L 428.57 528.07
  L 427.76 527.05
  L 429.02 527.70
  L 430.32 529.02
  Z"
/>
<path fill="#8f8f8f" d="
  M 506.24 606.96
  L 502.10 606.65
  L 498.03 605.96
  L 498.03 605.96
  L 494.94 605.18
  L 491.90 604.18
  L 487.48 602.22
  L 478.79 598.02
  L 462.61 589.69
  L 452.28 584.60
  L 448.28 582.58
  L 444.70 580.49
  L 441.40 578.25
  L 438.37 575.83
  L 435.71 573.33
  L 433.31 570.64
  L 431.24 567.83
  L 429.44 564.83
  L 427.67 561.01
  L 426.31 556.89
  L 425.40 552.56
  L 424.92 547.91
  L 425.01 545.69
  L 425.51 543.17
  L 426.39 540.54
  L 427.63 537.83
  L 429.58 533.77
  L 431.27 529.62
  L 431.45 529.66
  L 431.80 530.10
  L 431.87 530.59
  L 431.73 531.07
  L 429.38 535.14
  L 427.87 538.16
  L 426.74 541.50
  L 426.06 545.00
  L 425.86 548.50
  L 426.02 551.30
  L 426.39 554.02
  L 426.95 556.68
  L 427.70 559.26
  L 428.66 561.82
  L 429.80 564.28
  L 431.13 566.66
  L 432.64 568.93
  L 434.34 571.15
  L 436.22 573.25
  L 440.45 577.10
  L 442.57 578.63
  L 445.20 580.26
  L 452.03 583.84
  L 469.92 592.81
  L 481.90 598.87
  L 490.02 602.75
  L 493.62 604.19
  L 497.53 605.37
  L 501.73 606.29
  L 506.24 606.96
  Z"
/>
<path fill="#8f8f8f" d="
  M 458.25 569.08
  L 460.01 566.12
  L 462.52 562.81
  L 465.51 559.69
  L 469.07 556.64
  L 474.29 552.70
  L 474.40 552.60
  L 474.54 552.05
  L 474.19 551.60
  L 452.01 540.40
  L 456.98 542.59
  L 474.33 551.09
  L 493.72 559.80
  L 498.96 561.91
  L 503.47 563.40
  L 507.59 564.38
  L 511.38 564.86
  L 516.30 564.90
  L 521.13 564.41
  L 521.13 564.41
  L 524.99 563.63
  L 528.79 562.51
  L 532.54 561.05
  L 536.24 559.24
  L 580.16 535.88
  L 581.11 535.81
  L 581.81 536.45
  L 581.83 536.50
  L 582.74 539.17
  L 583.31 541.81
  L 583.56 544.51
  L 583.48 547.15
  L 582.99 550.19
  L 582.09 553.10
  L 580.75 555.97
  L 579.03 558.67
  L 576.94 561.18
  L 574.52 563.47
  L 571.79 565.52
  L 568.78 567.29
  L 537.04 584.02
  L 532.17 586.60
  L 527.95 588.59
  L 524.37 590.01
  L 521.44 590.85
  L 516.87 591.57
  L 512.30 591.79
  L 506.95 591.43
  L 501.60 590.40
  L 498.94 589.56
  L 495.62 588.23
  L 486.95 584.13
  L 458.52 569.71
  L 458.38 569.60
  L 458.25 569.08
  Z"
/>
<path fill="#8f8f8f" d="
  M 448.80 539.09
  L 447.51 538.58
  L 446.36 538.60
  L 446.36 538.60
  L 445.38 539.16
  L 444.55 540.24
  L 443.21 542.81
  L 442.23 545.14
  L 441.71 547.64
  L 441.84 550.42
  L 442.30 552.87
  L 443.68 557.78
  L 442.29 555.09
  L 441.37 552.44
  L 440.92 549.84
  L 440.94 547.29
  L 440.94 547.29
  L 441.38 544.92
  L 442.24 542.60
  L 443.51 540.31
  L 445.20 538.07
  L 445.56 537.79
  L 446.04 537.67
  L 446.71 537.72
  L 446.71 537.72
  L 447.80 538.18
  L 448.80 539.09
  Z"
/>
<path fill="#8f8f8f" d="
  M 455.78 567.92
  L 453.40 567.03
  L 451.23 565.93
  L 449.26 564.62
  L 447.49 563.10
  L 447.49 563.10
  L 445.39 560.64
  L 443.68 557.78
  L 447.48 562.05
  L 450.16 564.34
  L 455.78 567.92
  Z"
/>
<path fill="#8f8f8f" d="
  M 585.53 574.98
  L 579.67 579.39
  L 582.26 576.99
  L 585.53 574.98
  Z"
/>
<path fill="#8f8f8f" d="
  M 579.67 579.39
  L 554.60 592.71
  L 547.62 596.50
  L 538.53 601.35
  L 534.99 602.97
  L 531.65 604.29
  L 528.36 605.34
  L 525.17 606.11
  L 521.93 606.62
  L 518.78 606.85
  L 517.38 606.87
  L 522.24 606.14
  L 526.52 605.24
  L 530.23 604.15
  L 533.37 602.88
  L 541.60 598.90
  L 560.59 589.19
  L 579.07 579.31
  L 579.51 579.24
  L 579.67 579.39
  Z"
/>
<path fill="#8f8f8f" d="
  M 628.79 656.09
  L 625.69 653.97
  L 622.50 652.22
  L 619.22 650.83
  L 615.85 649.80
  L 615.85 649.80
  L 615.85 649.80
  L 612.81 649.20
  L 609.70 648.88
  L 606.51 648.84
  L 603.26 649.09
  L 600.67 649.50
  L 600.67 649.50
  L 596.93 650.49
  L 593.27 651.94
  L 589.71 653.84
  L 586.24 656.19
  L 588.37 654.45
  L 590.65 652.91
  L 593.06 651.56
  L 595.58 650.43
  L 598.40 649.46
  L 601.31 648.75
  L 604.27 648.31
  L 607.26 648.14
  L 609.86 648.22
  L 612.45 648.51
  L 615.01 649.01
  L 617.52 649.71
  L 620.57 650.87
  L 623.49 652.33
  L 626.24 654.08
  L 628.79 656.09
  Z"
/>
<path fill="#000000" d="
  M 628.79 656.09
  L 630.74 657.96
  L 632.53 659.97
  L 633.20 661.15
  L 635.91 666.20
  L 637.28 669.82
  L 638.18 674.35
  L 638.51 678.94
  L 638.26 683.51
  L 637.41 687.96
  L 636.03 692.02
  L 634.10 695.83
  L 631.65 699.26
  L 628.80 702.16
  L 626.74 703.77
  L 624.47 705.20
  L 620.32 707.15
  L 615.90 708.49
  L 611.19 709.24
  L 606.40 709.36
  L 601.67 708.85
  L 597.04 707.72
  L 592.71 706.01
  L 588.66 703.70
  L 588.01 703.25
  L 585.08 700.77
  L 582.48 697.75
  L 580.33 694.30
  L 578.69 690.56
  L 577.50 686.41
  L 576.86 682.11
  L 576.75 677.66
  L 577.20 673.25
  L 578.30 668.91
  L 579.54 665.94
  L 581.16 663.10
  L 584.33 658.04
  L 586.24 656.19
  L 589.71 653.84
  L 593.27 651.94
  L 596.93 650.49
  L 600.67 649.50
  L 600.67 649.50
  L 603.26 649.09
  L 606.51 648.84
  L 609.70 648.88
  L 612.81 649.20
  L 615.85 649.80
  L 615.85 649.80
  L 615.85 649.80
  L 619.22 650.83
  L 622.50 652.22
  L 625.69 653.97
  L 628.79 656.09
  Z
  M 604.30 664.29
  L 602.81 664.32
  L 601.54 664.75
  L 601.54 664.75
  L 600.26 665.83
  L 600.15 665.94
  L 598.53 667.09
  L 596.53 668.88
  L 596.53 668.88
  L 596.53 668.88
  L 595.52 670.23
  L 594.70 671.76
  L 594.08 673.46
  L 593.66 675.34
  L 593.30 679.16
  L 593.54 682.63
  L 594.39 685.88
  L 595.80 688.68
  L 597.68 691.03
  L 600.17 693.08
  L 602.57 694.32
  L 605.01 694.82
  L 606.63 694.75
  L 608.19 694.55
  L 608.65 694.89
  L 609.38 695.09
  L 610.25 695.01
  L 612.56 694.32
  L 614.61 693.39
  L 616.41 692.23
  L 617.96 690.83
  L 619.33 689.08
  L 620.42 687.07
  L 621.22 684.79
  L 621.74 682.25
  L 621.96 679.43
  L 621.81 676.80
  L 621.29 674.35
  L 620.40 672.09
  L 620.40 672.09
  L 620.40 672.09
  L 619.08 669.94
  L 617.46 668.09
  L 615.73 666.59
  L 613.89 665.41
  L 611.94 664.58
  L 611.94 664.58
  L 611.94 664.58
  L 610.16 664.13
  L 608.29 663.93
  L 606.34 663.98
  L 604.30 664.29
  Z"
/>
<path fill="#000000" d="
  M 365.28 663.97
  L 349.92 664.12
  L 349.48 664.24
  L 349.16 664.57
  L 349.15 664.58
  L 349.47 664.97
  L 349.31 664.95
  L 349.20 664.98
  L 349.10 665.05
  L 349.06 665.17
  L 348.99 668.42
  L 349.46 671.42
  L 348.89 687.89
  L 349.04 704.24
  L 349.12 704.72
  L 349.15 704.79
  L 349.29 705.20
  L 348.90 706.44
  L 348.25 707.18
  L 334.99 707.33
  L 334.25 707.19
  L 333.61 706.78
  L 333.18 706.16
  L 333.03 705.41
  L 333.03 705.41
  L 333.03 705.40
  L 333.03 665.59
  L 332.92 665.02
  L 332.59 664.53
  L 332.11 664.21
  L 331.54 664.10
  L 331.54 664.10
  L 318.00 664.09
  L 317.74 664.07
  L 317.74 664.07
  L 316.85 663.68
  L 316.03 662.80
  L 316.03 652.19
  L 316.20 651.35
  L 316.67 650.64
  L 317.38 650.17
  L 318.22 650.00
  L 363.75 650.00
  L 364.59 650.17
  L 365.30 650.64
  L 365.78 651.34
  L 365.96 652.18
  L 365.98 663.23
  L 365.82 663.73
  L 365.78 663.76
  L 365.28 663.97
  Z"
/>
<path fill="#8f8f8f" d="
  M 381.48 650.05
  L 380.43 651.04
  L 380.03 651.26
  L 380.03 650.74
  L 380.17 650.28
  L 380.61 650.04
  L 381.48 650.05
  Z"
/>
<path fill="#000000" d="
  M 396.92 675.49
  L 396.45 681.90
  L 396.65 685.87
  L 397.16 687.82
  L 397.88 689.52
  L 398.81 690.97
  L 399.95 692.18
  L 399.95 692.18
  L 399.95 692.18
  L 401.19 693.06
  L 402.59 693.75
  L 404.18 694.23
  L 405.94 694.50
  L 407.49 694.55
  L 408.91 694.39
  L 410.21 694.03
  L 411.39 693.46
  L 411.39 693.46
  L 411.39 693.46
  L 412.76 692.40
  L 413.92 690.99
  L 414.84 689.50
  L 415.50 688.04
  L 415.88 686.61
  L 416.00 685.21
  L 415.94 668.46
  L 416.11 651.77
  L 416.24 651.15
  L 416.60 650.63
  L 417.13 650.28
  L 417.75 650.15
  L 431.78 650.08
  L 432.54 651.03
  L 432.90 651.29
  L 433.16 687.05
  L 431.59 691.15
  L 430.22 695.28
  L 428.33 698.58
  L 425.99 701.45
  L 425.99 701.45
  L 423.22 703.88
  L 420.02 705.89
  L 415.93 707.42
  L 411.89 709.14
  L 411.94 709.07
  L 411.45 709.11
  L 410.31 709.10
  L 403.62 708.88
  L 398.75 708.11
  L 396.15 707.36
  L 393.60 706.38
  L 391.52 705.37
  L 389.66 704.22
  L 388.00 702.92
  L 386.55 701.49
  L 385.20 699.80
  L 384.01 697.94
  L 382.98 695.93
  L 382.12 693.75
  L 380.04 687.70
  L 380.03 651.26
  L 380.43 651.04
  L 381.48 650.05
  L 395.26 650.10
  L 395.26 650.10
  L 395.88 650.22
  L 396.40 650.57
  L 396.75 651.10
  L 396.87 651.72
  L 396.92 675.49
  Z"
/>
<path fill="#8f8f8f" d="
  M 432.90 651.29
  L 432.54 651.03
  L 431.78 650.08
  L 432.44 650.13
  L 432.73 650.30
  L 432.87 650.56
  L 432.90 651.29
  Z"
/>
<path fill="#000000" d="
  M 466.89 669.79
  L 466.65 705.07
  L 466.49 705.84
  L 466.05 706.49
  L 465.40 706.93
  L 464.63 707.08
  L 452.78 707.08
  L 452.78 707.08
  L 451.97 706.92
  L 451.29 706.46
  L 450.84 705.78
  L 450.68 704.97
  L 450.99 650.33
  L 465.60 650.24
  L 465.60 650.24
  L 466.44 650.58
  L 466.79 651.42
  L 466.89 669.79
  Z"
/>
<path fill="#000000" d="
  M 530.98 662.88
  L 530.66 663.14
  L 530.66 663.14
  L 529.17 663.85
  L 527.32 664.06
  L 514.33 664.03
  L 513.59 664.35
  L 513.28 665.10
  L 513.28 705.25
  L 513.14 706.21
  L 512.73 706.89
  L 512.05 707.30
  L 511.09 707.44
  L 499.74 707.44
  L 499.70 707.44
  L 498.80 707.24
  L 498.05 706.72
  L 497.56 705.94
  L 497.41 705.03
  L 497.82 688.49
  L 497.80 674.52
  L 497.44 669.71
  L 497.59 667.82
  L 497.51 666.57
  L 497.08 665.09
  L 484.38 664.90
  L 482.66 664.55
  L 480.73 663.55
  L 481.30 650.13
  L 529.05 650.12
  L 529.82 650.23
  L 530.37 650.56
  L 530.37 650.56
  L 530.37 650.56
  L 530.70 651.10
  L 530.82 651.85
  L 530.98 662.88
  Z"
/>
<path fill="#000000" d="
  M 561.65 650.62
  L 561.39 705.45
  L 561.26 706.12
  L 560.88 706.69
  L 560.31 707.07
  L 559.64 707.20
  L 547.15 707.20
  L 547.13 707.20
  L 546.49 707.06
  L 545.96 706.69
  L 545.61 706.13
  L 545.50 705.49
  L 545.81 692.37
  L 545.91 679.29
  L 545.79 666.23
  L 545.46 653.21
  L 545.64 651.71
  L 545.84 650.42
  L 549.91 650.00
  L 553.90 649.90
  L 557.81 650.10
  L 561.65 650.62
  Z"
/>
<path fill="#000000" d="
  M 666.81 649.89
  L 689.67 678.37
  L 689.73 678.40
  L 689.78 678.37
  L 689.93 678.17
  L 690.48 678.72
  L 690.90 678.97
  L 691.22 679.07
  L 691.55 678.56
  L 691.66 677.25
  L 691.97 650.39
  L 692.93 650.29
  L 699.97 649.96
  L 707.08 650.31
  L 707.45 705.20
  L 707.29 706.03
  L 706.83 706.74
  L 706.14 707.22
  L 705.32 707.41
  L 695.82 707.43
  L 694.41 707.18
  L 694.41 707.18
  L 693.17 706.51
  L 692.08 705.43
  L 681.48 692.26
  L 670.82 679.38
  L 670.07 678.66
  L 669.54 678.52
  L 669.22 678.97
  L 669.11 680.01
  L 669.11 705.55
  L 668.96 706.29
  L 668.55 706.91
  L 667.92 707.33
  L 667.19 707.48
  L 655.82 707.48
  L 655.08 707.33
  L 654.46 706.92
  L 654.04 706.29
  L 653.89 705.55
  L 653.58 650.84
  L 654.45 650.34
  L 656.04 650.14
  L 666.81 649.89
  Z"
/>
<path fill="#8f8f8f" d="
  M 689.93 678.17
  L 689.78 678.37
  L 689.73 678.40
  L 689.67 678.37
  L 666.81 649.89
  L 678.59 663.45
  L 689.81 677.60
  L 689.93 678.17
  Z"
/>
<path fill="#8f8f8f" d="
  M 481.30 650.13
  L 480.73 663.55
  L 480.16 660.81
  L 479.85 658.19
  L 479.81 655.66
  L 480.03 653.25
  L 480.48 651.54
  L 481.30 650.13
  Z"
/>
<path fill="#8f8f8f" d="
  M 450.99 650.33
  L 450.68 704.97
  L 450.84 705.78
  L 451.29 706.46
  L 451.97 706.92
  L 452.78 707.08
  L 452.78 707.08
  L 452.78 707.08
  L 464.63 707.08
  L 465.40 706.93
  L 466.05 706.49
  L 466.49 705.84
  L 466.65 705.07
  L 466.89 669.79
  L 466.94 705.87
  L 466.78 706.69
  L 466.31 707.38
  L 465.62 707.84
  L 464.80 708.00
  L 452.21 708.00
  L 451.36 707.83
  L 450.64 707.35
  L 450.16 706.63
  L 449.99 705.78
  L 450.12 651.74
  L 450.23 651.16
  L 450.99 650.33
  Z"
/>
<path fill="#8f8f8f" d="
  M 691.97 650.39
  L 691.66 677.25
  L 691.55 678.56
  L 691.22 679.07
  L 691.22 679.07
  L 690.90 678.97
  L 691.11 664.05
  L 691.06 654.00
  L 691.26 651.64
  L 691.55 650.87
  L 691.97 650.39
  Z"
/>
<path fill="#8f8f8f" d="
  M 653.58 650.84
  L 653.89 705.55
  L 654.04 706.29
  L 654.46 706.92
  L 655.08 707.33
  L 655.82 707.48
  L 667.19 707.48
  L 667.92 707.33
  L 668.55 706.91
  L 668.96 706.29
  L 669.11 705.55
  L 669.11 680.01
  L 669.22 678.97
  L 669.54 678.52
  L 670.07 678.66
  L 670.82 679.38
  L 681.48 692.26
  L 692.08 705.43
  L 693.17 706.51
  L 694.41 707.18
  L 694.41 707.18
  L 695.82 707.43
  L 705.32 707.41
  L 706.14 707.22
  L 706.83 706.74
  L 707.29 706.03
  L 707.45 705.20
  L 707.08 650.31
  L 707.76 651.57
  L 707.99 653.50
  L 707.98 705.75
  L 707.81 706.61
  L 707.32 707.35
  L 706.58 707.84
  L 705.72 708.01
  L 693.97 708.01
  L 693.59 707.93
  L 693.29 707.68
  L 671.46 680.79
  L 670.83 680.15
  L 670.37 680.02
  L 670.10 680.41
  L 670.01 681.31
  L 670.01 705.83
  L 669.85 706.66
  L 669.38 707.36
  L 668.68 707.83
  L 667.85 707.99
  L 655.03 707.99
  L 654.34 707.86
  L 653.75 707.50
  L 653.31 706.96
  L 653.10 706.29
  L 652.81 701.75
  L 652.81 699.48
  L 652.99 656.25
  L 653.15 653.57
  L 653.58 650.84
  Z"
/>
<path fill="#8f8f8f" d="
  M 545.84 650.42
  L 545.64 651.71
  L 545.46 653.21
  L 545.79 666.23
  L 545.91 679.29
  L 545.81 692.37
  L 545.50 705.49
  L 545.61 706.13
  L 545.96 706.69
  L 546.49 707.06
  L 547.13 707.20
  L 547.13 707.20
  L 547.15 707.20
  L 559.64 707.20
  L 560.31 707.07
  L 560.88 706.69
  L 561.26 706.12
  L 561.39 705.45
  L 561.65 650.62
  L 562.00 705.91
  L 561.85 706.71
  L 561.40 707.39
  L 560.73 707.84
  L 559.93 708.00
  L 559.93 708.00
  L 547.25 708.00
  L 546.40 707.83
  L 545.67 707.35
  L 545.19 706.62
  L 545.02 705.77
  L 545.08 653.47
  L 545.18 653.39
  L 545.33 652.87
  L 545.13 652.03
  L 545.25 651.39
  L 545.84 650.42
  Z"
/>
<path fill="#000000" d="
  M 545.13 652.03
  L 545.33 652.87
  L 545.18 653.39
  L 545.08 653.47
  L 545.13 652.03
  Z"
/>
<path fill="#8f8f8f" d="
  M 584.33 658.04
  L 581.16 663.10
  L 579.54 665.94
  L 578.30 668.91
  L 577.20 673.25
  L 576.75 677.66
  L 576.86 682.11
  L 577.50 686.41
  L 578.69 690.56
  L 580.33 694.30
  L 582.48 697.75
  L 585.08 700.77
  L 588.01 703.25
  L 588.66 703.70
  L 592.71 706.01
  L 597.04 707.72
  L 601.67 708.85
  L 606.40 709.36
  L 611.19 709.24
  L 615.90 708.49
  L 620.32 707.15
  L 624.47 705.20
  L 626.74 703.77
  L 628.80 702.16
  L 631.65 699.26
  L 634.10 695.83
  L 636.03 692.02
  L 637.41 687.96
  L 638.26 683.51
  L 638.51 678.94
  L 638.18 674.35
  L 637.28 669.82
  L 635.91 666.20
  L 633.20 661.15
  L 632.53 659.97
  L 635.34 664.07
  L 637.45 668.55
  L 638.82 673.31
  L 639.40 678.21
  L 639.37 681.22
  L 638.96 684.63
  L 638.18 687.97
  L 637.03 691.21
  L 635.52 694.30
  L 633.67 697.21
  L 631.50 699.91
  L 629.05 702.35
  L 626.33 704.51
  L 622.21 706.99
  L 617.76 708.82
  L 613.07 709.98
  L 608.26 710.42
  L 605.36 710.34
  L 602.47 710.00
  L 599.63 709.40
  L 596.86 708.55
  L 594.17 707.46
  L 591.60 706.13
  L 589.16 704.58
  L 586.88 702.82
  L 584.58 700.66
  L 582.51 698.30
  L 580.69 695.74
  L 579.14 693.01
  L 577.87 690.15
  L 576.90 687.18
  L 576.25 684.13
  L 575.90 681.03
  L 575.90 677.37
  L 576.18 674.70
  L 576.69 672.07
  L 577.43 669.49
  L 578.39 666.98
  L 579.58 664.57
  L 580.97 662.26
  L 582.56 660.08
  L 584.33 658.04
  Z"
/>
<path fill="#8f8f8f" d="
  M 348.25 707.18
  L 347.82 707.64
  L 347.43 707.91
  L 346.97 708.00
  L 333.54 708.00
  L 333.08 707.84
  L 333.03 707.36
  L 333.09 706.80
  L 332.95 706.35
  L 332.95 706.35
  L 332.49 705.97
  L 332.14 705.68
  L 332.02 705.23
  L 332.02 665.49
  L 331.86 665.12
  L 331.49 664.96
  L 318.68 664.98
  L 317.54 664.79
  L 316.69 664.24
  L 316.26 663.61
  L 316.03 662.80
  L 316.85 663.68
  L 317.74 664.07
  L 317.74 664.07
  L 318.00 664.09
  L 331.54 664.10
  L 331.54 664.10
  L 332.11 664.21
  L 332.59 664.53
  L 332.92 665.02
  L 333.03 665.59
  L 333.03 705.40
  L 333.03 705.41
  L 333.18 706.16
  L 333.61 706.78
  L 334.25 707.19
  L 334.99 707.33
  L 348.25 707.18
  Z"
/>
<path fill="#8f8f8f" d="
  M 530.98 662.88
  L 530.68 663.46
  L 530.07 664.08
  L 529.21 664.53
  L 528.10 664.80
  L 526.75 664.91
  L 514.43 665.02
  L 514.12 665.15
  L 513.99 665.45
  L 513.99 665.45
  L 513.99 705.75
  L 513.82 706.61
  L 513.33 707.34
  L 512.60 707.83
  L 511.74 708.00
  L 499.24 708.00
  L 498.39 707.83
  L 497.66 707.35
  L 497.18 706.62
  L 497.01 705.77
  L 497.08 665.09
  L 497.51 666.57
  L 497.59 667.82
  L 497.44 669.71
  L 497.80 674.52
  L 497.82 688.49
  L 497.41 705.03
  L 497.56 705.94
  L 498.05 706.72
  L 498.80 707.24
  L 499.70 707.44
  L 499.70 707.44
  L 499.74 707.44
  L 511.09 707.44
  L 512.05 707.30
  L 512.73 706.89
  L 513.14 706.21
  L 513.28 705.25
  L 513.28 665.10
  L 513.59 664.35
  L 514.33 664.03
  L 527.32 664.06
  L 529.17 663.85
  L 530.66 663.14
  L 530.66 663.14
  L 530.98 662.88
  Z"
/>
<path fill="#8f8f8f" d="
  M 365.28 663.97
  L 364.83 664.73
  L 364.07 664.98
  L 349.47 664.97
  L 349.15 664.58
  L 349.16 664.57
  L 349.48 664.24
  L 349.92 664.12
  L 365.28 663.97
  Z"
/>
<path fill="#8f8f8f" d="
  M 604.30 664.29
  L 600.26 665.83
  L 601.54 664.75
  L 601.54 664.75
  L 602.81 664.32
  L 604.30 664.29
  Z"
/>
<path fill="#8f8f8f" d="
  M 598.53 667.09
  L 596.55 669.52
  L 595.26 671.87
  L 594.68 673.58
  L 594.31 675.40
  L 593.99 680.37
  L 594.18 683.16
  L 594.88 685.76
  L 594.88 685.76
  L 594.88 685.76
  L 596.00 688.05
  L 597.57 690.18
  L 598.71 691.32
  L 599.85 692.18
  L 601.70 693.14
  L 604.24 693.98
  L 606.63 694.75
  L 605.01 694.82
  L 605.01 694.82
  L 602.57 694.32
  L 600.17 693.08
  L 597.68 691.03
  L 595.80 688.68
  L 594.39 685.88
  L 593.54 682.63
  L 593.30 679.16
  L 593.66 675.34
  L 594.08 673.46
  L 594.70 671.76
  L 595.52 670.23
  L 596.53 668.88
  L 596.53 668.88
  L 596.53 668.88
  L 598.53 667.09
  Z"
/>
<path fill="#8f8f8f" d="
  M 608.19 694.55
  L 610.73 694.11
  L 612.98 693.38
  L 615.02 692.31
  L 616.75 690.98
  L 618.03 689.59
  L 619.09 688.02
  L 619.97 686.21
  L 620.62 684.25
  L 621.04 682.13
  L 621.23 679.91
  L 621.21 677.50
  L 620.95 675.02
  L 620.33 672.70
  L 619.08 669.94
  L 620.40 672.09
  L 621.29 674.35
  L 621.81 676.80
  L 621.96 679.43
  L 621.74 682.25
  L 621.22 684.79
  L 620.42 687.07
  L 619.33 689.08
  L 617.96 690.83
  L 616.41 692.23
  L 614.61 693.39
  L 612.56 694.32
  L 610.25 695.01
  L 609.38 695.09
  L 608.65 694.89
  L 608.19 694.55
  Z"
/>
<path fill="#8f8f8f" d="
  M 349.46 671.42
  L 350.11 689.00
  L 350.11 697.05
  L 349.89 704.61
  L 349.65 705.19
  L 349.29 705.20
  L 349.15 704.79
  L 349.12 704.72
  L 349.04 704.24
  L 348.89 687.89
  L 349.46 671.42
  Z"
/>
<path fill="#8f8f8f" d="
  M 396.92 675.49
  L 396.82 678.80
  L 396.93 681.84
  L 397.25 684.49
  L 397.77 686.85
  L 398.52 688.91
  L 399.44 690.58
  L 400.56 691.94
  L 401.96 693.03
  L 403.46 693.72
  L 405.23 694.11
  L 407.21 694.14
  L 407.21 694.14
  L 408.93 693.83
  L 410.62 693.20
  L 412.29 692.25
  L 413.92 690.99
  L 412.76 692.40
  L 411.39 693.46
  L 411.39 693.46
  L 411.39 693.46
  L 410.21 694.03
  L 408.91 694.39
  L 407.49 694.55
  L 405.94 694.50
  L 404.18 694.23
  L 402.59 693.75
  L 401.19 693.06
  L 399.95 692.18
  L 399.95 692.18
  L 399.95 692.18
  L 398.81 690.97
  L 397.88 689.52
  L 397.16 687.82
  L 396.65 685.87
  L 396.45 681.90
  L 396.92 675.49
  Z"
/>
<path fill="#8f8f8f" d="
  M 433.16 687.05
  L 432.25 691.53
  L 430.83 695.52
  L 428.90 699.02
  L 426.47 702.03
  L 426.47 702.03
  L 426.47 702.03
  L 426.47 702.03
  L 426.47 702.03
  L 423.57 704.53
  L 420.17 706.55
  L 416.28 708.08
  L 411.89 709.14
  L 415.93 707.42
  L 420.02 705.89
  L 423.22 703.88
  L 425.99 701.45
  L 428.33 698.58
  L 430.22 695.28
  L 431.59 691.15
  L 433.16 687.05
  Z"
/>
<path fill="#8f8f8f" d="
  M 411.45 709.11
  L 409.73 709.42
  L 407.36 709.79
  L 405.52 709.79
  L 401.52 709.20
  L 397.61 708.28
  L 397.61 708.28
  L 397.43 708.23
  L 393.87 706.99
  L 390.71 705.40
  L 387.96 703.46
  L 385.60 701.17
  L 385.60 701.17
  L 383.54 698.39
  L 381.93 695.21
  L 380.77 691.65
  L 380.04 687.70
  L 382.12 693.75
  L 382.98 695.93
  L 384.01 697.94
  L 385.20 699.80
  L 386.55 701.49
  L 388.00 702.92
  L 389.66 704.22
  L 391.52 705.37
  L 393.60 706.38
  L 396.15 707.36
  L 398.75 708.11
  L 403.62 708.88
  L 410.31 709.10
  L 411.45 709.11
  Z"
/>
<path fill="#8f8f8f" d="
  M 400.70 724.12
  L 394.16 725.96
  L 395.80 724.98
  L 397.53 724.35
  L 399.08 724.10
  L 400.70 724.12
  Z"
/>
<path fill="#000000" d="
  M 408.71 724.00
  L 410.94 724.65
  L 410.94 724.65
  L 412.62 724.79
  L 414.36 724.65
  L 415.39 724.75
  L 416.46 725.08
  L 416.84 725.38
  L 416.97 725.84
  L 416.97 733.06
  L 416.85 733.53
  L 416.47 733.84
  L 415.39 734.05
  L 414.56 733.80
  L 410.57 732.79
  L 406.55 732.00
  L 406.45 731.98
  L 406.45 731.98
  L 403.96 731.97
  L 401.35 732.69
  L 400.63 733.16
  L 400.14 733.87
  L 399.96 734.71
  L 400.11 735.56
  L 401.01 736.90
  L 401.01 736.90
  L 401.01 736.90
  L 401.76 737.41
  L 402.68 737.73
  L 405.04 737.80
  L 405.80 737.86
  L 405.85 738.12
  L 405.88 738.19
  L 405.95 738.23
  L 406.66 738.38
  L 411.04 739.44
  L 414.20 740.55
  L 416.32 741.77
  L 416.98 742.41
  L 417.39 743.11
  L 418.09 745.36
  L 418.48 747.55
  L 418.55 749.68
  L 418.32 751.75
  L 418.32 751.75
  L 418.32 751.75
  L 417.35 754.81
  L 415.64 757.72
  L 415.24 757.97
  L 412.77 759.16
  L 409.50 760.22
  L 407.17 760.94
  L 399.32 760.87
  L 396.93 760.45
  L 394.35 760.01
  L 392.59 759.49
  L 391.28 758.73
  L 390.54 757.79
  L 390.31 757.03
  L 390.24 755.00
  L 390.24 755.00
  L 390.76 752.74
  L 391.91 750.54
  L 394.22 751.25
  L 395.03 751.76
  L 395.97 751.95
  L 397.04 751.81
  L 397.96 751.91
  L 397.96 751.93
  L 400.30 752.68
  L 402.44 752.99
  L 404.38 752.88
  L 406.12 752.33
  L 407.96 751.09
  L 408.15 749.21
  L 407.37 747.94
  L 407.37 747.94
  L 405.96 746.92
  L 404.02 746.39
  L 400.85 745.86
  L 397.87 745.11
  L 395.09 744.16
  L 392.50 742.99
  L 392.25 742.76
  L 390.96 740.36
  L 390.14 738.03
  L 389.76 735.76
  L 389.85 733.56
  L 389.85 733.56
  L 389.85 733.56
  L 390.33 731.57
  L 391.22 729.65
  L 392.49 727.77
  L 394.16 725.96
  L 400.70 724.12
  L 408.71 724.00
  Z"
/>
<path fill="#8f8f8f" d="
  M 414.36 724.65
  L 412.62 724.79
  L 410.94 724.65
  L 410.94 724.65
  L 408.71 724.00
  L 410.81 723.93
  L 412.83 724.20
  L 414.36 724.65
  Z"
/>
<path fill="#8f8f8f" d="
  M 442.19 731.71
  L 438.41 725.42
  L 437.81 724.85
  L 437.01 724.66
  L 428.06 725.01
  L 427.96 724.85
  L 427.95 724.76
  L 428.04 724.48
  L 428.29 724.37
  L 431.38 724.05
  L 436.24 724.05
  L 437.35 724.24
  L 438.30 724.68
  L 438.30 724.68
  L 439.10 725.36
  L 439.74 726.28
  L 441.05 728.92
  L 442.19 731.71
  Z"
/>
<path fill="#000000" d="
  M 462.28 724.22
  L 461.81 726.32
  L 455.68 737.77
  L 450.07 749.22
  L 450.07 754.27
  L 449.76 758.99
  L 449.57 759.78
  L 449.18 760.22
  L 448.32 760.27
  L 440.64 760.31
  L 439.71 748.25
  L 439.15 746.35
  L 438.34 744.47
  L 437.29 742.60
  L 435.99 740.74
  L 435.28 739.67
  L 434.87 738.57
  L 428.01 725.43
  L 428.06 725.01
  L 437.01 724.66
  L 437.81 724.85
  L 438.41 725.42
  L 442.19 731.71
  L 442.70 732.37
  L 443.09 733.23
  L 443.93 735.38
  L 445.05 737.15
  L 445.19 737.29
  L 445.96 737.48
  L 446.60 737.00
  L 453.10 724.26
  L 462.28 724.22
  Z"
/>
<path fill="#8f8f8f" d="
  M 482.96 724.25
  L 480.12 724.68
  L 477.68 725.46
  L 475.66 726.59
  L 474.04 728.07
  L 474.04 728.07
  L 474.04 728.07
  L 472.80 729.98
  L 471.99 732.26
  L 471.67 734.21
  L 471.65 736.14
  L 472.26 739.25
  L 473.67 742.30
  L 472.49 740.61
  L 471.62 738.90
  L 471.07 737.18
  L 470.83 735.44
  L 470.83 735.44
  L 470.90 733.76
  L 471.26 732.06
  L 471.92 730.35
  L 472.87 728.62
  L 474.33 726.79
  L 476.07 725.43
  L 476.07 725.43
  L 476.07 725.43
  L 477.55 724.74
  L 479.20 724.31
  L 481.00 724.14
  L 482.96 724.25
  Z"
/>
<path fill="#000000" d="
  M 488.59 724.05
  L 491.69 724.69
  L 494.76 724.78
  L 494.76 724.78
  L 495.54 724.71
  L 496.01 724.76
  L 497.22 725.07
  L 498.39 725.65
  L 498.81 726.06
  L 498.96 726.66
  L 498.96 733.26
  L 498.81 733.68
  L 498.43 733.92
  L 497.01 734.07
  L 495.69 733.89
  L 495.69 733.89
  L 495.30 733.76
  L 493.90 733.35
  L 490.01 732.60
  L 485.97 732.39
  L 485.00 732.54
  L 484.26 732.95
  L 482.91 733.34
  L 482.10 734.36
  L 481.91 735.31
  L 481.91 735.31
  L 481.91 735.31
  L 482.37 736.20
  L 483.49 737.01
  L 485.50 737.55
  L 486.91 738.20
  L 491.01 738.84
  L 494.35 739.96
  L 495.74 740.70
  L 496.94 741.55
  L 497.94 742.53
  L 498.76 743.62
  L 498.76 743.62
  L 499.33 744.70
  L 499.48 745.06
  L 499.48 745.06
  L 500.05 747.16
  L 500.18 749.44
  L 499.87 751.88
  L 499.13 754.49
  L 498.08 756.47
  L 497.01 757.61
  L 495.58 758.60
  L 493.86 759.43
  L 491.41 760.31
  L 489.68 760.92
  L 482.99 760.92
  L 481.01 760.56
  L 475.64 759.79
  L 474.30 759.44
  L 473.37 758.75
  L 472.87 757.79
  L 472.72 756.52
  L 472.67 750.96
  L 475.43 751.15
  L 480.13 752.42
  L 484.75 752.95
  L 486.49 752.83
  L 488.08 752.38
  L 489.25 751.67
  L 489.88 750.77
  L 489.95 750.57
  L 490.04 749.70
  L 489.69 748.66
  L 488.80 747.67
  L 487.50 746.88
  L 486.04 746.42
  L 481.84 745.58
  L 481.84 745.58
  L 478.40 744.60
  L 475.02 743.36
  L 474.32 742.93
  L 473.67 742.30
  L 472.26 739.25
  L 471.65 736.14
  L 471.67 734.21
  L 471.99 732.26
  L 472.80 729.98
  L 474.04 728.07
  L 474.04 728.07
  L 474.04 728.07
  L 475.66 726.59
  L 477.68 725.46
  L 480.12 724.68
  L 482.96 724.25
  L 488.59 724.05
  Z"
/>
<path fill="#8f8f8f" d="
  M 495.54 724.71
  L 494.76 724.78
  L 491.69 724.69
  L 488.59 724.05
  L 492.17 724.00
  L 495.50 724.70
  L 495.54 724.71
  Z"
/>
<path fill="#8f8f8f" d="
  M 542.99 725.22
  L 512.26 724.88
  L 511.62 724.97
  L 511.16 725.24
  L 510.89 725.69
  L 510.80 726.33
  L 510.80 731.36
  L 510.90 732.07
  L 511.21 732.58
  L 511.21 732.58
  L 511.21 732.58
  L 511.72 732.89
  L 512.43 732.99
  L 520.56 732.99
  L 521.42 733.34
  L 521.77 734.20
  L 521.77 758.45
  L 521.88 759.19
  L 522.19 759.71
  L 522.19 759.71
  L 522.19 759.71
  L 522.72 760.03
  L 523.45 760.13
  L 529.60 760.13
  L 530.38 760.02
  L 530.93 759.69
  L 530.94 759.69
  L 530.94 759.68
  L 531.27 759.13
  L 531.38 758.35
  L 531.38 733.83
  L 531.58 733.34
  L 532.08 733.12
  L 543.06 732.87
  L 543.05 733.25
  L 543.05 733.25
  L 542.41 733.73
  L 540.98 733.92
  L 532.96 734.02
  L 532.20 734.27
  L 531.95 735.03
  L 531.95 758.86
  L 531.79 759.66
  L 531.34 760.33
  L 530.67 760.78
  L 529.88 760.94
  L 529.88 760.94
  L 522.81 760.94
  L 522.10 760.80
  L 521.50 760.40
  L 521.10 759.80
  L 520.96 759.09
  L 520.96 734.64
  L 520.79 734.12
  L 520.27 733.95
  L 512.86 733.95
  L 511.60 733.77
  L 510.71 733.23
  L 510.71 733.23
  L 510.17 732.34
  L 509.99 731.08
  L 509.99 726.73
  L 510.16 725.54
  L 510.67 724.69
  L 511.52 724.18
  L 512.70 724.01
  L 542.30 724.01
  L 542.82 724.17
  L 543.06 724.66
  L 542.99 725.22
  Z"
/>
<path fill="#8f8f8f" d="
  M 581.17 732.67
  L 581.26 726.66
  L 581.13 725.97
  L 580.75 725.39
  L 580.18 724.99
  L 579.49 724.85
  L 579.48 724.85
  L 554.87 724.85
  L 554.12 725.16
  L 553.81 725.91
  L 553.81 759.28
  L 554.03 759.80
  L 554.55 760.02
  L 582.16 760.18
  L 582.15 760.21
  L 582.15 760.21
  L 582.15 760.21
  L 581.78 760.64
  L 581.14 760.95
  L 579.00 761.17
  L 556.50 760.87
  L 554.93 760.60
  L 553.36 759.86
  L 553.01 759.50
  L 552.89 759.02
  L 552.89 726.16
  L 553.02 725.23
  L 553.42 724.57
  L 553.42 724.57
  L 553.42 724.57
  L 554.09 724.16
  L 555.03 724.03
  L 579.79 724.03
  L 580.66 724.15
  L 581.32 724.51
  L 581.32 724.51
  L 581.78 725.10
  L 582.04 725.93
  L 582.21 727.86
  L 581.95 730.26
  L 581.17 732.67
  Z"
/>
<path fill="#8f8f8f" d="
  M 614.21 742.76
  L 609.26 734.70
  L 604.63 726.54
  L 603.92 725.47
  L 603.09 724.79
  L 602.27 724.51
  L 601.26 724.46
  L 596.15 724.73
  L 595.24 725.15
  L 594.87 726.08
  L 594.87 757.44
  L 594.84 757.63
  L 594.74 757.79
  L 594.58 757.99
  L 594.05 756.75
  L 593.95 741.19
  L 594.10 725.90
  L 594.42 724.91
  L 595.30 724.41
  L 599.08 723.93
  L 603.05 724.19
  L 603.49 724.35
  L 603.84 724.69
  L 605.68 727.41
  L 605.68 727.41
  L 610.21 734.91
  L 614.21 742.76
  Z"
/>
<path fill="#8f8f8f" d="
  M 635.09 724.91
  L 627.93 724.80
  L 627.18 724.89
  L 626.48 725.17
  L 625.88 725.63
  L 625.42 726.23
  L 616.54 742.05
  L 615.93 742.88
  L 615.26 743.22
  L 625.46 724.98
  L 625.51 724.89
  L 625.51 724.89
  L 626.18 724.30
  L 627.25 723.97
  L 629.53 723.75
  L 631.60 723.83
  L 633.45 724.22
  L 635.09 724.91
  Z"
/>
<path fill="#8f8f8f" d="
  M 450.07 749.22
  L 455.68 737.77
  L 461.81 726.32
  L 462.28 724.22
  L 462.78 724.30
  L 462.93 724.76
  L 462.84 725.20
  L 450.07 749.22
  Z"
/>
<path fill="#8f8f8f" d="
  M 453.10 724.26
  L 446.60 737.00
  L 445.96 737.48
  L 445.19 737.29
  L 445.05 737.15
  L 443.93 735.38
  L 443.09 733.23
  L 445.46 736.75
  L 445.73 736.90
  L 446.01 736.78
  L 446.06 736.70
  L 448.55 731.56
  L 451.45 726.68
  L 451.45 726.68
  L 453.10 724.26
  Z"
/>
<path fill="#000000" d="
  M 581.17 732.67
  L 565.15 733.08
  L 564.21 733.49
  L 563.83 734.43
  L 563.83 736.31
  L 563.94 737.05
  L 564.25 737.58
  L 564.26 737.59
  L 564.79 737.90
  L 565.53 738.01
  L 577.55 738.01
  L 578.26 738.11
  L 578.77 738.41
  L 578.77 738.41
  L 578.77 738.41
  L 579.09 738.92
  L 579.21 739.63
  L 579.27 741.45
  L 579.11 742.37
  L 579.17 744.46
  L 579.11 745.32
  L 578.80 745.99
  L 578.80 745.99
  L 578.55 746.25
  L 575.59 746.00
  L 572.76 746.32
  L 572.65 746.34
  L 565.21 746.14
  L 564.69 746.03
  L 564.29 746.13
  L 564.08 746.32
  L 563.97 746.50
  L 563.97 746.50
  L 563.73 747.48
  L 563.97 748.73
  L 564.08 751.90
  L 564.31 752.29
  L 564.69 752.55
  L 565.10 752.62
  L 581.32 752.46
  L 582.02 754.25
  L 582.37 755.99
  L 582.03 757.14
  L 582.23 758.53
  L 582.16 760.18
  L 554.55 760.02
  L 554.03 759.80
  L 553.81 759.28
  L 553.81 725.91
  L 554.12 725.16
  L 554.87 724.85
  L 579.48 724.85
  L 579.49 724.85
  L 580.18 724.99
  L 580.75 725.39
  L 581.13 725.97
  L 581.26 726.66
  L 581.17 732.67
  Z"
/>
<path fill="#000000" d="
  M 614.21 742.76
  L 615.26 743.22
  L 615.93 742.88
  L 616.54 742.05
  L 625.42 726.23
  L 625.88 725.63
  L 626.48 725.17
  L 627.18 724.89
  L 627.93 724.80
  L 635.09 724.91
  L 635.37 730.44
  L 635.30 756.04
  L 635.12 760.17
  L 625.87 760.22
  L 626.01 746.50
  L 625.76 745.37
  L 625.52 744.98
  L 625.85 744.40
  L 625.96 743.82
  L 625.91 743.44
  L 625.68 743.09
  L 625.28 743.24
  L 624.38 744.17
  L 623.72 745.21
  L 618.60 755.31
  L 618.28 755.68
  L 617.84 755.88
  L 615.30 756.21
  L 612.31 756.13
  L 611.60 755.90
  L 610.99 755.44
  L 609.84 753.73
  L 605.25 745.12
  L 604.72 744.19
  L 604.33 743.92
  L 604.11 744.22
  L 604.03 743.39
  L 603.64 743.06
  L 603.50 743.62
  L 603.61 758.72
  L 603.30 759.67
  L 602.85 759.94
  L 602.19 760.02
  L 594.95 759.87
  L 594.58 757.99
  L 594.74 757.79
  L 594.84 757.63
  L 594.87 757.44
  L 594.87 726.08
  L 595.24 725.15
  L 596.15 724.73
  L 601.26 724.46
  L 602.27 724.51
  L 603.09 724.79
  L 603.92 725.47
  L 604.63 726.54
  L 609.26 734.70
  L 614.21 742.76
  Z"
/>
<path fill="#000000" d="
  M 542.99 725.22
  L 543.41 727.93
  L 543.19 729.13
  L 543.19 731.49
  L 543.06 732.87
  L 532.08 733.12
  L 531.58 733.34
  L 531.38 733.83
  L 531.38 758.35
  L 531.27 759.13
  L 530.94 759.68
  L 530.94 759.69
  L 530.93 759.69
  L 530.38 760.02
  L 529.60 760.13
  L 523.45 760.13
  L 522.71 760.03
  L 522.19 759.71
  L 521.88 759.19
  L 521.77 758.45
  L 521.77 734.20
  L 521.42 733.34
  L 520.56 732.99
  L 512.43 732.99
  L 511.72 732.89
  L 511.21 732.58
  L 511.21 732.58
  L 511.21 732.58
  L 510.90 732.07
  L 510.80 731.36
  L 510.80 726.33
  L 510.89 725.69
  L 511.16 725.24
  L 511.16 725.24
  L 511.62 724.97
  L 512.26 724.88
  L 542.99 725.22
  Z"
/>
<path fill="#8f8f8f" d="
  M 434.87 738.57
  L 431.78 733.70
  L 431.78 733.70
  L 429.73 729.66
  L 428.01 725.43
  L 434.87 738.57
  Z"
/>
<path fill="#8f8f8f" d="
  M 394.16 725.96
  L 392.49 727.77
  L 391.22 729.65
  L 390.33 731.57
  L 389.85 733.56
  L 389.85 733.56
  L 389.85 733.56
  L 389.76 735.76
  L 390.14 738.03
  L 390.96 740.36
  L 392.25 742.76
  L 390.75 741.21
  L 389.63 739.06
  L 389.05 736.54
  L 389.01 733.90
  L 389.51 731.36
  L 390.53 729.07
  L 392.00 727.27
  L 393.77 726.12
  L 394.16 725.96
  Z"
/>
<path fill="#8f8f8f" d="
  M 543.41 727.93
  L 543.76 729.10
  L 543.74 730.20
  L 543.19 731.49
  L 543.19 729.13
  L 543.41 727.93
  Z"
/>
<path fill="#8f8f8f" d="
  M 635.37 730.44
  L 636.04 738.27
  L 636.10 746.09
  L 636.10 746.09
  L 635.82 751.07
  L 635.30 756.04
  L 635.37 730.44
  Z"
/>
<path fill="#8f8f8f" d="
  M 414.56 733.80
  L 402.15 733.08
  L 401.49 733.20
  L 400.97 733.62
  L 400.70 734.23
  L 400.75 734.90
  L 401.00 735.35
  L 402.14 736.45
  L 403.49 737.26
  L 405.04 737.80
  L 402.68 737.73
  L 401.76 737.41
  L 401.01 736.90
  L 401.01 736.90
  L 401.01 736.90
  L 400.11 735.56
  L 399.96 734.71
  L 400.14 733.87
  L 400.63 733.16
  L 401.35 732.69
  L 403.96 731.97
  L 406.45 731.98
  L 406.45 731.98
  L 406.55 732.00
  L 410.57 732.79
  L 414.56 733.80
  Z"
/>
<path fill="#8f8f8f" d="
  M 495.30 733.76
  L 484.26 732.95
  L 485.00 732.54
  L 485.97 732.39
  L 490.01 732.60
  L 493.90 733.35
  L 495.30 733.76
  Z"
/>
<path fill="#8f8f8f" d="
  M 482.91 733.34
  L 482.84 734.19
  L 482.84 734.19
  L 483.00 735.60
  L 483.49 737.01
  L 482.37 736.20
  L 481.91 735.31
  L 481.91 735.31
  L 482.10 734.36
  L 482.91 733.34
  Z"
/>
<path fill="#8f8f8f" d="
  M 415.64 757.72
  L 417.35 754.81
  L 418.32 751.75
  L 418.32 751.75
  L 418.32 751.75
  L 418.55 749.68
  L 418.48 747.55
  L 418.09 745.36
  L 417.39 743.11
  L 416.98 742.41
  L 416.34 741.78
  L 414.26 740.57
  L 411.07 739.45
  L 406.66 738.38
  L 405.95 738.23
  L 405.88 738.19
  L 405.85 738.12
  L 405.80 737.86
  L 408.35 738.14
  L 410.82 738.70
  L 410.82 738.70
  L 414.44 740.15
  L 415.87 741.06
  L 417.01 742.19
  L 418.02 743.84
  L 418.67 745.65
  L 419.08 747.65
  L 419.23 749.64
  L 419.10 751.65
  L 418.72 753.36
  L 418.09 754.95
  L 417.24 756.26
  L 416.12 757.37
  L 415.64 757.72
  Z"
/>
<path fill="#8f8f8f" d="
  M 489.68 760.92
  L 491.41 760.31
  L 493.86 759.43
  L 495.58 758.60
  L 497.01 757.61
  L 498.08 756.47
  L 499.13 754.49
  L 499.87 751.88
  L 500.18 749.44
  L 500.05 747.16
  L 499.48 745.06
  L 499.48 745.06
  L 499.48 745.06
  L 499.33 744.70
  L 498.76 743.62
  L 498.76 743.62
  L 497.94 742.53
  L 496.94 741.55
  L 495.74 740.70
  L 494.35 739.96
  L 491.01 738.84
  L 486.91 738.20
  L 490.26 738.39
  L 493.44 739.11
  L 494.01 739.30
  L 495.73 740.03
  L 497.19 740.92
  L 498.38 741.97
  L 499.31 743.19
  L 499.46 743.45
  L 500.38 745.50
  L 501.01 748.47
  L 500.93 751.68
  L 500.50 753.56
  L 499.71 755.29
  L 498.56 756.93
  L 497.13 758.33
  L 495.43 759.50
  L 493.55 760.34
  L 491.65 760.81
  L 489.68 760.92
  Z"
/>
<path fill="#8f8f8f" d="
  M 439.71 748.25
  L 435.99 740.74
  L 437.29 742.60
  L 438.34 744.47
  L 439.15 746.35
  L 439.71 748.25
  Z"
/>
<path fill="#8f8f8f" d="
  M 579.27 741.45
  L 579.67 742.24
  L 579.78 743.01
  L 579.61 743.74
  L 579.17 744.46
  L 579.11 742.37
  L 579.27 741.45
  Z"
/>
<path fill="#8f8f8f" d="
  M 408.15 749.21
  L 404.86 747.64
  L 400.19 746.34
  L 396.96 745.52
  L 394.29 744.44
  L 393.28 743.76
  L 392.50 742.99
  L 395.09 744.16
  L 397.87 745.11
  L 400.85 745.86
  L 404.02 746.39
  L 405.96 746.92
  L 407.37 747.94
  L 407.37 747.94
  L 408.15 749.21
  Z"
/>
<path fill="#8f8f8f" d="
  M 604.11 744.22
  L 603.98 744.44
  L 603.90 745.06
  L 604.01 745.78
  L 604.04 758.95
  L 603.92 759.81
  L 603.56 760.42
  L 603.56 760.42
  L 602.95 760.79
  L 602.10 760.91
  L 595.51 760.91
  L 595.12 760.78
  L 594.88 760.44
  L 594.90 759.91
  L 594.95 759.87
  L 602.19 760.02
  L 602.85 759.94
  L 603.30 759.67
  L 603.61 758.72
  L 603.50 743.62
  L 603.64 743.06
  L 604.03 743.39
  L 604.11 744.22
  Z"
/>
<path fill="#8f8f8f" d="
  M 625.52 744.98
  L 625.01 744.91
  L 624.66 745.15
  L 623.25 747.12
  L 623.25 747.12
  L 621.88 749.50
  L 620.77 752.05
  L 619.53 754.85
  L 618.91 755.70
  L 618.16 756.35
  L 616.92 756.90
  L 615.27 757.10
  L 613.39 756.94
  L 611.68 756.45
  L 610.48 755.71
  L 609.88 754.79
  L 609.84 753.73
  L 610.99 755.44
  L 611.60 755.90
  L 612.31 756.13
  L 615.30 756.21
  L 617.84 755.88
  L 618.28 755.68
  L 618.60 755.31
  L 623.72 745.21
  L 624.38 744.17
  L 625.28 743.24
  L 625.68 743.09
  L 625.91 743.44
  L 625.96 743.82
  L 625.85 744.40
  L 625.52 744.98
  Z"
/>
<path fill="#8f8f8f" d="
  M 475.43 751.15
  L 481.79 751.94
  L 484.93 752.02
  L 488.04 751.91
  L 488.51 751.74
  L 488.77 751.36
  L 488.82 751.21
  L 488.98 750.04
  L 488.77 748.76
  L 488.55 748.34
  L 488.16 748.07
  L 487.55 747.80
  L 485.60 747.09
  L 485.07 747.00
  L 481.96 746.43
  L 479.00 745.46
  L 479.00 745.46
  L 476.97 744.51
  L 475.02 743.36
  L 478.40 744.60
  L 481.84 745.58
  L 481.84 745.58
  L 486.04 746.42
  L 487.50 746.88
  L 488.80 747.67
  L 489.69 748.66
  L 490.04 749.70
  L 489.95 750.57
  L 489.88 750.77
  L 489.25 751.67
  L 488.08 752.38
  L 486.49 752.83
  L 484.75 752.95
  L 480.13 752.42
  L 475.43 751.15
  Z"
/>
<path fill="#000000" d="
  M 604.01 745.78
  L 603.90 745.06
  L 603.98 744.44
  L 604.05 744.52
  L 604.19 745.04
  L 604.01 745.78
  Z"
/>
<path fill="#8f8f8f" d="
  M 609.84 753.73
  L 609.25 752.91
  L 607.02 749.18
  L 605.25 745.12
  L 609.84 753.73
  Z"
/>
<path fill="#8f8f8f" d="
  M 565.21 746.14
  L 564.28 747.13
  L 564.02 747.87
  L 563.97 748.73
  L 563.73 747.48
  L 563.97 746.50
  L 563.97 746.50
  L 564.08 746.32
  L 564.29 746.13
  L 564.69 746.03
  L 565.21 746.14
  Z"
/>
<path fill="#8f8f8f" d="
  M 578.55 746.25
  L 577.90 746.53
  L 577.90 746.53
  L 576.72 746.83
  L 575.45 746.90
  L 574.09 746.74
  L 572.65 746.34
  L 572.76 746.32
  L 572.76 746.32
  L 575.59 746.00
  L 578.55 746.25
  Z"
/>
<path fill="#8f8f8f" d="
  M 391.91 750.54
  L 390.76 752.74
  L 390.24 755.00
  L 390.24 755.00
  L 390.31 757.03
  L 390.54 757.79
  L 391.28 758.73
  L 392.59 759.49
  L 394.35 760.01
  L 396.93 760.45
  L 399.32 760.87
  L 396.28 760.71
  L 393.31 760.24
  L 393.31 760.24
  L 391.94 759.91
  L 391.08 759.58
  L 390.55 759.15
  L 390.24 758.45
  L 390.09 757.25
  L 389.97 753.69
  L 390.22 751.53
  L 390.61 750.68
  L 391.11 750.31
  L 391.91 750.54
  Z"
/>
<path fill="#8f8f8f" d="
  M 397.96 751.93
  L 400.73 752.11
  L 403.33 752.03
  L 405.73 751.69
  L 407.96 751.09
  L 406.12 752.33
  L 406.12 752.33
  L 404.38 752.88
  L 402.44 752.99
  L 400.30 752.68
  L 397.96 751.93
  Z"
/>
<path fill="#8f8f8f" d="
  M 472.67 750.96
  L 472.72 756.52
  L 472.87 757.79
  L 473.37 758.75
  L 474.30 759.44
  L 475.64 759.79
  L 481.01 760.56
  L 482.99 760.92
  L 479.38 761.01
  L 479.38 761.01
  L 476.46 760.64
  L 473.55 759.87
  L 472.55 759.19
  L 472.05 758.08
  L 471.88 754.79
  L 472.42 751.71
  L 472.67 750.96
  Z"
/>
<path fill="#8f8f8f" d="
  M 397.04 751.81
  L 395.97 751.95
  L 395.03 751.76
  L 395.03 751.76
  L 394.22 751.25
  L 394.56 751.24
  L 394.56 751.24
  L 395.80 751.38
  L 397.04 751.81
  Z"
/>
<path fill="#8f8f8f" d="
  M 581.32 752.46
  L 565.10 752.62
  L 564.69 752.55
  L 564.31 752.29
  L 564.08 751.90
  L 581.32 752.46
  Z"
/>
<path fill="#8f8f8f" d="
  M 582.37 755.99
  L 582.70 757.27
  L 582.23 758.53
  L 582.03 757.14
  L 582.37 755.99
  Z"
/>
<path fill="#8f8f8f" d="
  M 415.64 757.72
  L 413.37 759.44
  L 410.91 760.52
  L 410.91 760.52
  L 410.91 760.52
  L 409.08 760.88
  L 407.17 760.94
  L 409.50 760.22
  L 412.77 759.16
  L 415.24 757.97
  L 415.64 757.72
  Z"
/>
<path fill="#8f8f8f" d="
  M 635.12 760.17
  L 633.17 760.85
  L 631.19 761.16
  L 628.55 761.01
  L 625.87 760.22
  L 635.12 760.17
  Z"
/>
<path fill="#8f8f8f" d="
  M 448.32 760.27
  L 446.32 760.94
  L 444.32 761.14
  L 444.32 761.14
  L 442.48 760.93
  L 440.64 760.31
  L 448.32 760.27
  Z"
/>
</svg>
